<svg xmlns="http://www.w3.org/2000/svg" xmlns:xlink="http://www.w3.org/1999/xlink" viewBox="0 0 1080 1080"><defs><clipPath id="fa790eba-5743-48a5-a27b-3c3f04b8f66b"><rect x="466.82" y="500.59" width="613.18" height="491.18" fill="none"/></clipPath><linearGradient id="aff51daf-58f3-4171-ad07-1a3815f7cd92" x1="970.6" y1="878.56" x2="970.6" y2="771.68" gradientTransform="matrix(-1, 0, 0, 1, 2119.75, 0)" gradientUnits="userSpaceOnUse"><stop offset="0" stop-color="#0d97d3"/><stop offset="1"/></linearGradient><linearGradient id="a7eb9f49-fce4-43c1-a4eb-3e3a3a18669d" x1="964.19" y1="948.08" x2="964.19" y2="870.11" gradientTransform="matrix(-1, 0, 0, 1, 2119.75, 0)" gradientUnits="userSpaceOnUse"><stop offset="0" stop-color="#fff"/><stop offset="0.11" stop-color="#dce7ef"/><stop offset="0.36" stop-color="#94b6ce"/><stop offset="0.58" stop-color="#5b8eb4"/><stop offset="0.76" stop-color="#3272a1"/><stop offset="0.91" stop-color="#186095"/><stop offset="1" stop-color="#0f5a91"/></linearGradient><linearGradient id="bee51c9b-040e-47b2-9fde-792d0dfc52cf" x1="1409.63" y1="936.84" x2="1409.63" y2="860.99" xlink:href="#a7eb9f49-fce4-43c1-a4eb-3e3a3a18669d"/><linearGradient id="b3e410d8-cf5f-4f0f-837a-24069f07f921" x1="978.83" y1="887.98" x2="978.83" y2="860.62" xlink:href="#aff51daf-58f3-4171-ad07-1a3815f7cd92"/><linearGradient id="af602378-22dc-4e84-b5c3-5aed63b725aa" x1="1175.56" y1="813.27" x2="1175.56" y2="807.27" xlink:href="#aff51daf-58f3-4171-ad07-1a3815f7cd92"/></defs><g style="isolation:isolate"><g id="f1e91e65-d131-4def-8150-080ece6086d9" data-name="Layer 1"><ellipse cx="181.26" cy="988.82" rx="102.5" ry="2.96" fill="#edeceb"/><path d="M260.69,902.53c5.48,5.74,11.43,11.73,19.16,13.51a25.43,25.43,0,0,0,13.06-.71c2.92-.89,5.8-2.19,8.85-2.21s6.43,1.82,6.86,4.84a6.13,6.13,0,0,1-2,5,17,17,0,0,1-4.7,3,156.36,156.36,0,0,1-66.42,16c-2.28,0-4.31-.94-6.35-1.95-4.18-2.06-5.59-5.42-4.67-10,1.37-6.81,6.52-12.18,11.78-16.73,4.47-3.86,9.26-7.48,14.75-9.68a14.7,14.7,0,0,1,5.59-1.24,7,7,0,0,1,5.15,2.17Z" fill="#ce8741"/><path d="M132.76,920.23a20.43,20.43,0,0,1-.83,6.56c-1.7,5.41-6.29,9.63-11.59,11.65a29.47,29.47,0,0,1-16.75.79c-2.49-.55-4.93-1.33-7.45-1.7a23.46,23.46,0,0,0-12.63,1.62,6.88,6.88,0,0,1-3.63.91c-1.89-.3-3.06-2.42-2.93-4.33a10,10,0,0,1,2.39-5.14c5.46-7.18,13-12.51,19.14-19.08a25,25,0,0,1,3.8-3.62,20.37,20.37,0,0,1,4.34-2.14c3.84-1.52,7.95-3,12-2.24C126.37,904.91,132.61,912.6,132.76,920.23Z" fill="#ce8741"/><path d="M88.41,937.7a18.28,18.28,0,0,1,5.28-.11,10.71,10.71,0,0,1-1.37-.94,2.29,2.29,0,0,1,.65-.31.89.89,0,0,1-.85-.83,2.12,2.12,0,0,1,.33-1.26,8.7,8.7,0,0,1,4-3.83,6.71,6.71,0,0,0-3,.36,6.15,6.15,0,0,1,.69-1.41.58.58,0,0,1-1-.08.85.85,0,0,1,.36-1c-.47-.43-1.31-.16-1.8-.57a1.49,1.49,0,0,1-.34-1.34,9.12,9.12,0,0,1,2.37-5.17l-1.61.76c-.19.09-.44.17-.59,0s-.09-.42,0-.62a43.62,43.62,0,0,1,4-6.91c-6.11,6-13.92,10-21.6,16.11-1,.79,3.93,13.64,5.61,11.2S87,938,88.41,937.7Z" fill="#f2d6b6"/><path d="M79.9,941.15a16.22,16.22,0,0,1-1.74,3.07,5.29,5.29,0,0,1-3.84,1.86,3.11,3.11,0,0,1-1.85-.45,1.71,1.71,0,0,1-.76-1.68.71.71,0,0,1-.94-.3c-1.14-2.33.08-7.57.46-9.23A6.37,6.37,0,0,1,74,930.53a8.6,8.6,0,0,1,2.29-1,48.92,48.92,0,0,1,5.19-1.37c1.47-.3,3.16-.47,4.28.51a3.91,3.91,0,0,1,1,1.54,7.64,7.64,0,0,1-.1,5.64c-.72,1.7-2,2.09-3.65,2.49A5,5,0,0,0,79.9,941.15Z" fill="#f2d6b6"/><path d="M76.16,940.55a8.65,8.65,0,0,1-4.5,3.48c-.16.05,0,.72.15.8s.49,0,.72-.09a5.9,5.9,0,0,0,1.57-1A7.34,7.34,0,0,0,76.16,940.55Z" fill="#ddc2a8"/><path d="M277.28,907.94a30.6,30.6,0,0,1-7.87,18.25c-6.9,7.69-17.4,12.07-28,14.27s-21.51,2.46-32.31,3.41c-29.84,2.63-59.6,10.63-89.3,7.52-5.75-.6-12.1-2-15.08-6.48a16.35,16.35,0,0,1-2.16-6.36,90.78,90.78,0,0,1-1.36-13.95c-.12-6.18.57-12.81,4.85-17.67,2.74-3.12,6.7-5.16,10.73-6.73,12.48-4.84,26.24-5.75,39.71-6.61l34.43-2.17a189.41,189.41,0,0,0,22.7-2.37c4.28-.8,8.65-2,12-4.54,2.26-1.73,3.93-4,6-5.91,6-5.39,14.79-7.1,23.07-8.38,5.9-.91,12.16-1.69,17.65.36,7.28,2.72,8.93,9.14,6.54,15.31C276.1,893.23,277.78,900.39,277.28,907.94Z" fill="#ea9c47"/><path d="M111.23,875.5a9.94,9.94,0,0,1,4.23-7.39c2.57-1.63,6.22-1.94,7.68-4.6-9-2.17-18.73,3.8-22.57,12.25s-2.55,18.57,1.52,26.91c2.78,5.69,7.65,11.24,14,11.41,7.7.21,18.75-12.47,10.36-18.64-3.07-2.26-6.73-1.83-9.64-4.89C113.18,886.75,110.68,880.77,111.23,875.5Z" fill="#ea9c47"/><path d="M247.9,837.88a35.12,35.12,0,0,0-23.6,13.25c-5.58,7.41-7.65,17.49-4.86,26.33a28.6,28.6,0,0,0,18.34,18.21,30.75,30.75,0,0,0,25.73-3.61,49.29,49.29,0,0,0,9.15-8.11,41.51,41.51,0,0,0,6.71-9.12,18.81,18.81,0,0,0,2.14-11,22,22,0,0,0-2.86-7.63C272.21,844.8,261.59,836.19,247.9,837.88Z" fill="#ea9c47"/><path d="M272.89,846.55c10.51,4.23,12.05,2,22-2.42.57-.25,2.83.67,3.44.64,2-.09,3.23,2.2,3.63,4.18,1.38,6.75,2,14.4-1.79,20.13s-4.13,7.95-9.9,11.71a90.3,90.3,0,0,1-26.91,12,4.27,4.27,0,0,1-1.77.18,3,3,0,0,1-2.16-3.23,10.62,10.62,0,0,1,1.36-4c4.56-9.66,11.52-22.8,7-32.49-2.15-4.63-9.15-13.51-16.17-14.11a46,46,0,0,0-12.36.89c2.48-2.06,12.43-2.42,15.42-2.21C262,838.31,269.91,845.35,272.89,846.55Z" fill="#f2d6b6"/><path d="M301.47,845.27a10.2,10.2,0,0,1,1.26,3.07c.95,3.47,1.51,7.19.55,10.66-.16.58-.66,1.28-1.19,1a1.06,1.06,0,0,1-.44-.57c-.43-1.09-.64-2.33-1.49-3.15a1.35,1.35,0,0,0-1.53-.36,2.94,2.94,0,0,0-.62.69c-1.05,1.32-3.21,1.22-4.55.21a8.27,8.27,0,0,1-2.56-4.25c-.95-2.91-.81-6.2,2.27-7.73C295.69,843.59,299.63,842.58,301.47,845.27Z" fill="#38312b"/><path d="M257.88,894.93a30.48,30.48,0,0,1-20.1.74,28.57,28.57,0,0,1-18.34-18.21c-2.79-8.84-.72-18.92,4.86-26.33a31.85,31.85,0,0,1,3.12-3.54c.47.72.05,1.76-.36,2.57a31.23,31.23,0,0,0-3.34,13.16,30.16,30.16,0,0,0,12.08,25c5.34,3.86,11.86,5.7,18.33,6.5C255.13,894.9,256.51,894.86,257.88,894.93Z" fill="#ce8741"/><path d="M218.4,836.92c-6.31.81-12.25,3.2-18.47,4.43-5.62,1.11-11.71-5.73-17.14.42,3.78,9.86,14.65,26.81,29.07,32.83,8,3.35,18.48,4.37,24.86-1.27a20,20,0,0,0,4.19-5.6,24.5,24.5,0,0,0,3.24-13.37C243.18,842.6,230.24,835.42,218.4,836.92Z" fill="#f2d6b6"/><path d="M241.34,864.73a17.76,17.76,0,0,1-6.89,4.8,8.63,8.63,0,0,0,1.6-2.72,33.65,33.65,0,0,1-9.42,3.27,35.17,35.17,0,0,0,6-9.87l-13.16,6a12.21,12.21,0,0,1,2-4.67,7.46,7.46,0,0,0-1.65,1.41l.42-2.13a37.94,37.94,0,0,1-4.88,3.4c1-4.86,5.65-8.22,10-11.1-2-.82-4.29-.56-6.42-.15a85.15,85.15,0,0,0-15,4.67,13.35,13.35,0,0,1,6.76-6.37,5.71,5.71,0,0,0-4.63,1.37,1.29,1.29,0,0,0,.44-.83l-2.6,1.24,3.41-3.13a10.64,10.64,0,0,1-5.34.32,17.28,17.28,0,0,1,9.48-6.23,40.73,40.73,0,0,1,11.72-1.24c4,0,8.16.33,11.83,1.89s6.81,4.61,7.34,8.32C243,857.47,244.75,860.6,241.34,864.73Z" fill="#e0c5aa"/><path d="M234.9,846.72c-5.67-3.12-12.77-2.59-19.3-1.74s-13.43,1.86-19.51-.51c-3.21-1.25-6.13-3.42-9.6-3.6a3,3,0,0,0-2.67,1c-.59.92,0,2.09.51,3a79.23,79.23,0,0,0,9.91,13.71,56.5,56.5,0,0,0,23.18,14.83,36.85,36.85,0,0,0,7.9,1.83,26.37,26.37,0,0,0,13.12-2c-.11,2.49-2.76,4.21-5.29,5-5.61,1.81-11.89,1.24-17.46-.67a58.2,58.2,0,0,1-15.21-8.51,35.87,35.87,0,0,1-5.55-4.77,38.22,38.22,0,0,1-3.58-4.93c-2.3-3.54-4.6-7.09-6.69-10.74a13.66,13.66,0,0,1-1.94-4.7,5.12,5.12,0,0,1,1.47-4.67c1.52-1.33,3.86-1.48,5.92-1.14s4,1.08,6.12,1.24c3.24.24,6.38-.94,9.49-1.83a53.81,53.81,0,0,1,23.68-1.25,24.07,24.07,0,0,1,10.24,3.83A16.66,16.66,0,0,1,246,851.74c.47,4.26-.19,9.64-2.33,13.48-.14-2.87.57-5.34-.49-8.2A19,19,0,0,0,234.9,846.72Z" fill="#ea9c47"/><path d="M247.2,856.79a32.44,32.44,0,0,0-5.19-8.9,16.53,16.53,0,0,0-7.72-5.69c1.16.35,3.27-2.36,5-1.75,1.56.54,3.19,3.27,4.05,4.59A23.48,23.48,0,0,1,247.2,856.79Z" fill="#ce8741"/><path d="M258.32,842.53a14.42,14.42,0,0,1,3.67,2.65,22.89,22.89,0,0,1,5.61,6.8c1.27,2.67,1.51,6-.08,8.49a6.9,6.9,0,0,1-7.15,2.93,9.1,9.1,0,0,1-2.34-.94,13.67,13.67,0,0,1-6.65-9C250.47,849.08,252,839.68,258.32,842.53Z" fill="#ce8741"/><path d="M266.54,849.85a7.48,7.48,0,0,1,1.56,4.61,2.7,2.7,0,0,1-.37,1.35c-.7,1-2.29,1-3.41.42a9.28,9.28,0,0,1-3-2.76,7.45,7.45,0,0,1-1.8-4.05c-.05-1.34,1.22-3.66,2.82-3.47C263.74,846.11,265.79,848.81,266.54,849.85Z" fill="#38312b"/><path d="M248.94,847.08a.94.94,0,0,1-.22.66.58.58,0,0,1-.73-.06,1.53,1.53,0,0,1-.39-.69c-.54-1.68-.92-7.73,2.4-6.51,1.36.5,1,1.12.56,2.15C249.85,844.17,249.06,845.31,248.94,847.08Z" fill="#f2d6b6"/><path d="M215.83,947.38c.21-.49.43-1,.65-1.46a2.18,2.18,0,0,1-3.23.82A95.49,95.49,0,0,1,186.71,953l2.57-2.93a28,28,0,0,1-14.65,4.53c.34-.62.69-1.24,1-1.86a9.08,9.08,0,0,1-6.18,2c.22-.74.44-1.49.67-2.23a6.34,6.34,0,0,1-5,1.58c.44-.69.88-1.38,1.33-2.06a89,89,0,0,1-36.28,7.41,13.65,13.65,0,0,0,6-2.48,23.55,23.55,0,0,1-13.65.81,6.47,6.47,0,0,0,2.87-1.68,23,23,0,0,1-10.3-.55,14.27,14.27,0,0,0,8.54-12.7c3.18,1.52,6.89,1.63,10.45,1.59,4.95-.07,10.49,3.27,15.43,3.45,25.08.93,46.23-2.81,69.92-8.54,2-.47,16.69-.48,15.23,2.82-.78,1.76-6.74,3.31-8.48,3.89A23.56,23.56,0,0,1,215.83,947.38Z" fill="#f2d6b6"/><path d="M132.28,926.83a20.6,20.6,0,0,1,2.06,6.28c.79,5.62,3.43,8.77-.49,12.86s-14.26,9.25-19.78,10.53c-2.48.57-5,.91-7.46,1.65A23.73,23.73,0,0,0,95.89,965,6.77,6.77,0,0,1,93,967.41c-1.83.54-3.8-.87-4.5-2.66a10,10,0,0,1,0-5.66c1.86-8.82,6.35-16.86,9.12-25.45a25.29,25.29,0,0,1,1.88-4.9,20.64,20.64,0,0,1,3-3.79c2.81-3,5.9-6.09,9.88-7.17C119.94,915.73,128.87,920,132.28,926.83Z" fill="#ea9c47"/><path d="M99.7,961.63a18.33,18.33,0,0,1,4.72-2.37,11.42,11.42,0,0,1-1.64-.26,2.26,2.26,0,0,1,.46-.56.89.89,0,0,1-1.13-.38,2.17,2.17,0,0,1-.24-1.28,8.67,8.67,0,0,1,2-5.19,6.57,6.57,0,0,0-2.56,1.62,6,6,0,0,1,0-1.58.58.58,0,0,1-.91.35.85.85,0,0,1-.12-1.09c-.61-.19-1.25.41-1.87.25-.46-.11-.72-.61-.88-1.07a9,9,0,0,1-.07-5.68c-.38.46-.76.91-1.13,1.37-.14.16-.33.34-.53.28s-.26-.34-.26-.57a44.32,44.32,0,0,1,.66-8c-3,8-8.28,15-12.61,23.82C83.05,962.46,93,972,93.47,969S98.59,962.53,99.7,961.63Z" fill="#f2d6b6"/><path d="M93.49,968.39a16.51,16.51,0,0,1-.26,3.52,5.31,5.31,0,0,1-2.67,3.33,3,3,0,0,1-1.87.38,1.67,1.67,0,0,1-1.39-1.19.75.75,0,0,1-1,.14c-2-1.63-3.17-6.88-3.54-8.54a6.37,6.37,0,0,1,.83-4.7,8.79,8.79,0,0,1,1.63-1.92,47.1,47.1,0,0,1,4.11-3.47c1.19-.89,2.65-1.77,4.08-1.36a3.74,3.74,0,0,1,1.54,1,7.59,7.59,0,0,1,2.33,5.13c.08,1.85-.89,2.75-2.23,3.82A5,5,0,0,0,93.49,968.39Z" fill="#f2d6b6"/><path d="M89.85,969.45a8.57,8.57,0,0,1-2.57,5.07c-.13.12.35.63.48.66s.44-.2.61-.38a6,6,0,0,0,1-1.59A7.31,7.31,0,0,0,89.85,969.45Z" fill="#ddc2a8"/><path d="M284.12,948.65a20,20,0,0,1,3.76-1.75,6.27,6.27,0,0,1,4.95.85,3.5,3.5,0,0,1,1.46,1.7,2,2,0,0,1-.42,2.11.87.87,0,0,1,.7.94c-.51,3-5.25,7.19-6.74,8.52a7.51,7.51,0,0,1-5.31,1.82,10.22,10.22,0,0,1-2.89-.57,56,56,0,0,1-5.91-2.23c-1.61-.72-3.35-1.71-3.74-3.42a4.44,4.44,0,0,1,.11-2.14,8.94,8.94,0,0,1,3.94-5.32c1.85-1.14,3.34-.65,5.2.1A5.91,5.91,0,0,0,284.12,948.65Z" fill="#f2d6b6"/><path d="M287.29,951.79a10.14,10.14,0,0,1,6.68-.27c.2.06.45-.72.4-.86-.1-.32-.45-.35-.74-.41a7,7,0,0,0-2.19-.11A8.55,8.55,0,0,0,287.29,951.79Z" fill="#ddc2a8"/><path d="M261.06,918c.24,7.38.64,15.23,4.89,21.26a23.66,23.66,0,0,0,9.49,7.62c2.58,1.2,5.38,2.08,7.51,4s3.33,5.25,1.75,7.61a5.76,5.76,0,0,1-4.5,2.28,16.45,16.45,0,0,1-5.14-.82c-20.57-5.75-40.37-15.12-56.5-29.12a13.37,13.37,0,0,1-4-4.86c-1.62-4,.83-8.71,4.31-11.3,5.18-3.88,12.08-4.4,18.55-4.28,5.5.1,11.07.57,16.23,2.45a13.76,13.76,0,0,1,4.65,2.61,6.46,6.46,0,0,1,2.22,4.7Z" fill="#ea9c47"/><path d="M284.83,887.5c-2.09,5.25.42,11.15,0,16.78-.28,4-2,7.73-3.72,11.36l-6.93,14.7-.15-3A37.93,37.93,0,0,1,268.45,939l-2.34-9c.65,2.83-1.83,5.37-4.25,7a38.53,38.53,0,0,1-10.57,4.95,14.25,14.25,0,0,0,3.3-9.56,7,7,0,0,1-4.85,4.24,7.25,7.25,0,0,1,1.58-3.17A21,21,0,0,1,237.67,938a28.88,28.88,0,0,0,8.49-21.47,13.51,13.51,0,0,1-5.3,7.12,27.87,27.87,0,0,0-1.51-22.14c.17,1.15.31,2.31.44,3.46-2.58-4.59-5.86-8.16-8.83-12.51,12.77.61,21.06,2.84,33.42-14.38a13.18,13.18,0,0,1,4.91-4.23,13.49,13.49,0,0,1,6.83-.79,75.74,75.74,0,0,1,8.22,1.07c2,.37,6.45.61,8,2.14,1.64,1.69-1.9,4.13-3.07,5.32A19.16,19.16,0,0,0,284.83,887.5Z" fill="#f2d6b6"/><path d="M266.56,941.15a4.37,4.37,0,0,1,1,2.43,36.59,36.59,0,0,1-4.77-1c.73.74,1.48,2,.73,2.71a1.94,1.94,0,0,1-.91.41,19.77,19.77,0,0,1-9.93-.16,26.91,26.91,0,0,1,4.6,3.78l-6.42-2.23,2.83,2.91a20.11,20.11,0,0,0-5.68-1.64c2.15,3,5.76,4.63,9.19,6.08A148.75,148.75,0,0,0,274.36,961c4.47,1.29,12.08,1.31,12.45-5.17.29-5.06-8.7-8.11-12.27-9.87C272,944.68,268.42,943.31,266.56,941.15Z" fill="#f2d6b6"/><path d="M299.68,910.94a18.75,18.75,0,0,1,1.46-3.89,6.25,6.25,0,0,1,4.12-2.86,3.65,3.65,0,0,1,2.24.19,2,2,0,0,1,1.17,1.81.86.86,0,0,1,1.16.17c1.74,2.51,1.28,8.82,1.15,10.81a7.52,7.52,0,0,1-2.51,5A10.4,10.4,0,0,1,306,923.8a55.26,55.26,0,0,1-5.79,2.55c-1.64.61-3.58,1.12-5.06.18a4.57,4.57,0,0,1-1.41-1.61,9,9,0,0,1-.92-6.56c.53-2.11,1.93-2.8,3.79-3.57A5.91,5.91,0,0,0,299.68,910.94Z" fill="#f2d6b6"/><path d="M304.14,911a10.1,10.1,0,0,1,4.58-4.86c.18-.09-.18-.83-.32-.9s-.57.07-.82.23a6.48,6.48,0,0,0-1.63,1.46A8.41,8.41,0,0,0,304.14,911Z" fill="#ddc2a8"/><path d="M281.88,917.87a4.37,4.37,0,0,1,2.43,1,35.11,35.11,0,0,1-4.07,2.66c1,0,2.44.38,2.42,1.42a2,2,0,0,1-.37.94,19.74,19.74,0,0,1-7.19,6.84,26.68,26.68,0,0,1,5.92-.53l-6.14,2.9,4.06.1a20,20,0,0,0-5.21,2.81c3.66.66,7.36-.73,10.82-2.09a151.81,151.81,0,0,0,16.77-7.39c4.09-2.21,9.53-7.52,5.27-12.4-3.34-3.82-11.9.29-15.68,1.54C288.27,916.56,284.72,918.11,281.88,917.87Z" fill="#f2d6b6"/><path d="M142.13,894.6c4.59-.51,9.22-.8,13.81-1.09l31.29-1.94c2-.12,4.07-.25,6.11-.4,1.65,1.51,4.76,2.05,6.85,2.66,3.43,1,7,2.16,9.39,4.83s2.86,7.33.09,9.57c-2.23,1.81-5.89,1.65-7.42,4.08-1.42,2.26,0,5.26-.57,7.88s-3.23,4.58-6,5.09-5.52,0-8.23-.62l-7.73-1.61a9,9,0,0,1-4.39-1.78c-2.19-2-1.93-5.69-3.86-8s-5.49-2.42-8.39-1.62-5.62,2.31-8.61,2.68c-6.61.83-13.06-4.8-13.91-11.4A14.67,14.67,0,0,1,142.13,894.6Z" fill="#b27538"/><path d="M142.2,922.4c-1.71,12.23-4.78,21.17-14.93,27.92.73-1.1,7-1.48,8.56-2.44,2.14-1.3,3.09-3.53,4-5.82A40.42,40.42,0,0,0,142.2,922.4Z" fill="#ce8741"/><path d="M113.82,863.48C106,865.87,100.6,874,100.56,882.14s4.84,16,11.78,20.29c-3.41,4-2.86,9.86-2.12,15l-1.6-2.64c.14,1.63.29,3.27.43,4.9l-1.43-.59a138.31,138.31,0,0,1-3.86,18.36,1.55,1.55,0,0,1-.66-1.07q-.64,3.15-1.31,6.31c.24-.19-.08-.62-.38-.55s-.47.38-.58.67c-.58,1.5-.68,3.15-1.24,4.67s-1.83,3-3.44,3c-.12-3.47-.25-6.93-.37-10.4-.46,1.25-.91,2.51-1.37,3.76a80.87,80.87,0,0,0,2.46-25l2.22,5.62a103,103,0,0,0-1.31-11.2l.84,1.81a33,33,0,0,0-.84-6.93,28.73,28.73,0,0,0-5.32,4.27c1.24-1.75,1.48-4,2.19-6s2.3-4.08,4.44-4a6.93,6.93,0,0,0-7.19,2.29,39.78,39.78,0,0,1,2.43-9.17A8.76,8.76,0,0,1,88,893.34L92.2,891,90,889.8l3-.62A8.13,8.13,0,0,1,92.31,879a5,5,0,0,1,2,2.74,20.32,20.32,0,0,1,.15-6.87,17.89,17.89,0,0,1,1.17,3.79,17.21,17.21,0,0,1,1.63-7.5l.12,1.83a20,20,0,0,1,4.39-7.33,5.69,5.69,0,0,1-.84,3,19.82,19.82,0,0,1,15.51-12.62,9.75,9.75,0,0,0-6.85,3.53A37.4,37.4,0,0,1,122.37,858c1,0,2.28.28,2.7,1.23l-6.77.7a15,15,0,0,1,14.3,6.47c-1.21-1.84-7.44-3.23-9.51-3.53A22.14,22.14,0,0,0,113.82,863.48Z" fill="#f2d6b6"/><path d="M264.93,890.17a19.22,19.22,0,0,1-1.46,7.85l3.44-2.6a6.67,6.67,0,0,1-.4,2.8,3.85,3.85,0,0,1,1.77-2.1,23.57,23.57,0,0,1-2,13.42c4-1.9,5.38-6.88,8.57-9.95a28.6,28.6,0,0,1,.51,16.54l5.27-10.65c-.29,1.38-.59,2.76-.88,4.13l2.72-4.81a23,23,0,0,1-.92,6.75c2.89-2.44,3.77-6.54,3.73-10.33s-.82-7.56-.49-11.33c.29-3.29,1.68-7,4.66-8.75C283.86,887.52,272.78,888.94,264.93,890.17Z" fill="#e0c5aa"/><path d="M301,874.25a13.87,13.87,0,0,1-.8,2.74,13.15,13.15,0,0,1-2.49,4.1,17.72,17.72,0,0,1-2.85,2.32,18.57,18.57,0,0,1-6.42,3.22,13.38,13.38,0,0,1-4.42.13,10.43,10.43,0,0,1-3.95-1.2,5.76,5.76,0,0,1-2.66-3.07,4,4,0,0,1,.7-3.9,5,5,0,0,1,2.83-1.39c1.06-.18,2.14-.17,3.2-.27a15.67,15.67,0,0,0,4.21-1,7.55,7.55,0,0,0,2.85-1.78,6.46,6.46,0,0,0,1.42-5.47,2.91,2.91,0,0,0,1.92.84q1.51.24,3,.39a11.33,11.33,0,0,1,2.87.23C301.6,870.64,301.15,873.27,301,874.25Z" fill="#e05344"/><path d="M298.12,876.9a11.79,11.79,0,0,1-9.2,7.08,9.28,9.28,0,0,0,4.61-2.77,14,14,0,0,0,2.79-4.66,8.47,8.47,0,0,0,.65-4.41c-.11-.61-1.12-2.69.28-2.25C299.94,870.72,298.88,875.18,298.12,876.9Z" fill="#ff765f"/><path d="M294.7,869a21.74,21.74,0,0,1-7.5-2.56l3.05,1.72a13.58,13.58,0,0,0,8.18,2.21c.88,0,1.56-.31,1.67-1.26C298.56,868.67,296.42,869.24,294.7,869Z" fill="#38312b"/><path d="M295.59,60.08,270.22,180.16h44.56L340.16,60.08h71.18L366.15,273.62H295l14.24-66.85H226.89q-15.16,0-22.44-9.13t-3.87-24.29L224.41,60.08Z"/><path d="M627.05,240.2q-3.42,15.17-14.55,24.29a39.77,39.77,0,0,1-26,9.13H466.42q-15.17,0-22.43-9.13t-3.87-24.29L471.07,93.5q3.39-15.15,14.54-24.29a39.84,39.84,0,0,1,26-9.13H631.69q15.16,0,22.44,9.13T658,93.5ZM543.8,86.69,509.75,247h44.57l34-160.32Z"/><path d="M784.57,60.08,759.19,180.16h44.57L829.14,60.08h71.18L855.13,273.62H784l14.24-66.85H715.86q-15.17,0-22.43-9.13t-3.87-24.29L713.39,60.08Z"/><path d="M283.8,53.23,258.42,173.31H303L328.37,53.23h71.18L354.36,266.78H283.18l14.24-66.85H215.09q-15.17,0-22.43-9.13t-3.87-24.3L212.62,53.23Z" fill="#037c39"/><path d="M615.25,233.35q-3.4,15.17-14.54,24.3a39.79,39.79,0,0,1-26,9.13H454.63q-15.17,0-22.44-9.13t-3.86-24.3L459.27,86.66q3.41-15.16,14.55-24.3a39.82,39.82,0,0,1,26-9.13H619.9q15.15,0,22.43,9.13t3.87,24.3ZM532,79.85,498,240.16h44.57l34-160.31Z" fill="#037c39"/><path d="M772.78,53.23,747.4,173.31H792L817.34,53.23h71.19L843.34,266.78H772.16l14.24-66.85H704.07q-15.17,0-22.44-9.13t-3.86-24.3L701.6,53.23Z" fill="#037c39"/><rect x="141.89" y="299.59" width="804.24" height="10.56"/><path d="M142,355.18h14.32c8.76,0,15.81,3.17,15.81,13,0,9.51-7.25,13.69-15.81,13.69H151.1v13.7H142Zm13.79,19.42c5,0,7.39-2.24,7.39-6.44s-2.58-5.73-7.39-5.73H151.1V374.6Z" fill="#1a5336"/><path d="M182,387c0-6.89,5.69-10.4,20.21-11.28-.32-2.74-2.39-4.43-6.52-4.43-3,0-5.91,1.15-9.37,2.88l-3.25-6a29.2,29.2,0,0,1,14.38-4.16c8.64,0,13.88,4.49,13.88,13.91v17.57h-7.45l-.66-3.47H203c-3.1,2.34-6.95,4.21-10.89,4.21C185.84,396.29,182,392.19,182,387Zm20.21-.74v-5c-9,.46-11.47,2.41-11.47,5,0,2,1.67,2.93,4.24,2.93A11.74,11.74,0,0,0,202.17,386.29Z" fill="#1a5336"/><path d="M222.19,400.75c0-2.51,1.65-4.57,4.78-6.16v-.24a5.89,5.89,0,0,1-3.1-5.23c0-2.05,1.48-4.27,3.68-5.77v-.25a9.37,9.37,0,0,1-4.07-7.89c0-7.37,6.21-11.14,13.17-11.14a16,16,0,0,1,5,.75h12.5v6.69H248a7.14,7.14,0,0,1,1.33,4c0,7.07-5.54,10.3-12.67,10.3a16,16,0,0,1-4.23-.62,2.5,2.5,0,0,0-1.37,2.26c0,1.64,1.62,2.3,5.23,2.3H242c8,0,12.48,2.25,12.48,7.78,0,6.4-7.13,11.07-18.33,11.07C228.12,408.62,222.19,406.25,222.19,400.75Zm23.57-1.63c0-2-1.89-2.36-5.4-2.36h-3.87a19,19,0,0,1-4.67-.41c-1.56,1-2.19,1.9-2.19,3,0,2.31,3,3.48,7.79,3.48C242.36,402.84,245.76,401.23,245.76,399.12Zm-4.45-23.91c0-3.23-2.11-5-4.66-5s-4.61,1.78-4.61,5,2.08,5.11,4.61,5.11S241.31,378.56,241.31,375.21Z" fill="#1a5336"/><path d="M277,372H264.66v-7.14h21.49v30.73H277Zm-1.91-17.51c0-3.34,2.54-5.67,6.05-5.67s6.06,2.33,6.06,5.67S284.7,360,281.18,360,275.13,357.8,275.13,354.45Z" fill="#1a5336"/><path d="M305.09,364.82h7.43l.66,4.09h.24c2.67-2.61,6.05-4.84,10.62-4.84,6.95,0,10,4.75,10,12.5v19h-9.12v-17.8c0-4.09-1.18-5.91-4.51-5.91-2.43,0-4.08,1.13-6.21,3.2v20.51h-9.12Z" fill="#1a5336"/><path d="M345.24,387c0-6.89,5.69-10.4,20.21-11.28-.32-2.74-2.39-4.43-6.52-4.43-3,0-5.91,1.15-9.36,2.88l-3.25-6a29.17,29.17,0,0,1,14.38-4.16c8.64,0,13.87,4.49,13.87,13.91v17.57h-7.45l-.66-3.47h-.23c-3.1,2.34-6.94,4.21-10.89,4.21C349.12,396.29,345.24,392.19,345.24,387Zm20.21-.74v-5c-9,.46-11.47,2.41-11.47,5,0,2,1.67,2.93,4.24,2.93A11.74,11.74,0,0,0,365.45,386.29Z" fill="#1a5336"/><path d="M427.55,364.82H435l.66,4.09h.24c2.67-2.61,6.05-4.84,10.63-4.84,6.94,0,10,4.75,10,12.5v19h-9.12v-17.8c0-4.09-1.18-5.91-4.51-5.91-2.43,0-4.08,1.13-6.21,3.2v20.51h-9.12Z" fill="#1a5336"/><path d="M466.82,380.2c0-10.23,7.56-16.13,15.67-16.13s15.67,5.9,15.67,16.13-7.56,16.09-15.67,16.09S466.82,390.39,466.82,380.2Zm22,0c0-5.33-2.14-8.77-6.34-8.77s-6.34,3.44-6.34,8.77,2.14,8.73,6.34,8.73S488.83,385.51,488.83,380.2Z" fill="#1a5336"/><path d="M549,380.16a15.67,15.67,0,0,1,16-16.09c9.48,0,14.47,6.4,14.47,14.75a26.76,26.76,0,0,1-.38,4.08H555.71v-6.11h17.15l-1.43,1.74c0-4.93-2.15-7.52-6.19-7.52-4.5,0-7.45,3.05-7.45,9.15,0,6.38,3.47,9.18,9.44,9.18a17,17,0,0,0,7.92-2.13l3,5.49A23.52,23.52,0,0,1,566,396.29C556.41,396.29,549,390.38,549,380.16Z" fill="#1a5336"/><path d="M590.83,364.82h7.43l.66,4.09h.25c2.66-2.61,6-4.84,10.62-4.84,6.94,0,10,4.75,10,12.5v19h-9.12v-17.8c0-4.09-1.17-5.91-4.5-5.91-2.43,0-4.09,1.13-6.22,3.2v20.51h-9.12Z" fill="#1a5336"/><path d="M631.34,380.2c0-10.23,8.31-16.13,17.77-16.13a16.63,16.63,0,0,1,11.5,4.18l-4.19,5.65a11.29,11.29,0,0,0-6.81-2.47c-5.29,0-8.94,3.44-8.94,8.77s3.59,8.73,8.64,8.73a14.13,14.13,0,0,0,8.08-2.93l3.68,5.76a20,20,0,0,1-12.63,4.53C638.76,396.29,631.34,390.39,631.34,380.2Z" fill="#1a5336"/><path d="M670.92,380.2c0-10.23,7.56-16.13,15.67-16.13s15.67,5.9,15.67,16.13-7.56,16.09-15.67,16.09S670.92,390.39,670.92,380.2Zm22,0c0-5.33-2.14-8.77-6.34-8.77s-6.34,3.44-6.34,8.77,2.15,8.73,6.34,8.73S692.93,385.51,692.93,380.2Z" fill="#1a5336"/><path d="M713.29,364.82h7.43l.66,4.09h.25c2.67-2.61,6-4.84,10.62-4.84,6.94,0,10,4.75,10,12.5v19h-9.12v-17.8c0-4.09-1.17-5.91-4.5-5.91-2.43,0-4.09,1.13-6.22,3.2v20.51h-9.12Z" fill="#1a5336"/><path d="M760.44,382.81V372H752.7v-6.79l8.15-.35,1.18-9.4h7.53v9.4h13V372h-13v10.73c0,4.68,2,6.44,6.46,6.44a18,18,0,0,0,6.07-1.1l1.65,6.6a33.73,33.73,0,0,1-10,1.66C763.92,396.29,760.44,390.87,760.44,382.81Z" fill="#1a5336"/><path d="M797.62,364.82h7.49l.72,6.72H806c3-5,7.56-7.47,12.46-7.47a12.67,12.67,0,0,1,5.9,1.24L822.56,373a16,16,0,0,0-5.44-.9c-3.81,0-7.73,2-10.38,7.49v16h-9.12Z" fill="#1a5336"/><path d="M835.09,387c0-6.89,5.69-10.4,20.21-11.28-.32-2.74-2.39-4.43-6.52-4.43-3,0-5.91,1.15-9.37,2.88l-3.25-6a29.2,29.2,0,0,1,14.38-4.16c8.64,0,13.88,4.49,13.88,13.91v17.57H857l-.66-3.47h-.23c-3.1,2.34-7,4.21-10.89,4.21C839,396.29,835.09,392.19,835.09,387Zm20.21-.74v-5c-9,.46-11.47,2.41-11.47,5,0,2,1.67,2.93,4.24,2.93C850.81,389.23,853.12,388,855.3,386.29Z" fill="#1a5336"/><path d="M875,380.2c0-10.06,6.46-16.13,13.14-16.13a10.16,10.16,0,0,1,7.75,3.31h.21l-.43-4.75V352.16h9.12v43.39h-7.43l-.65-3.16h-.23a12.86,12.86,0,0,1-8.51,3.9C880.14,396.29,875,390.23,875,380.2ZM895.69,386V373.58a7.2,7.2,0,0,0-5.14-2c-3.32,0-6.19,2.7-6.19,8.55,0,6,2.22,8.74,5.95,8.74A6.35,6.35,0,0,0,895.69,386Z" fill="#1a5336"/><path d="M916.73,387c0-6.89,5.69-10.4,20.21-11.28-.32-2.74-2.39-4.43-6.52-4.43-3,0-5.91,1.15-9.37,2.88l-3.25-6a29.2,29.2,0,0,1,14.38-4.16c8.64,0,13.88,4.49,13.88,13.91v17.57h-7.45l-.66-3.47h-.23c-3.1,2.34-7,4.21-10.89,4.21C920.61,396.29,916.73,392.19,916.73,387Zm20.21-.74v-5c-9,.46-11.47,2.41-11.47,5,0,2,1.67,2.93,4.24,2.93A11.74,11.74,0,0,0,936.94,386.29Z" fill="#1a5336"/><polygon points="194.32 355.56 203.83 344.26 210.02 350.32 198.82 360.02 194.32 355.56" fill="#1a5336"/><g clip-path="url(#fa790eba-5743-48a5-a27b-3c3f04b8f66b)"><ellipse cx="898.58" cy="987.84" rx="238.53" ry="3.94" fill="#edeceb"/><path d="M1534.49,950.86l-149.09-2.78-245.44-20L938.74,939.76l-156.57-2.92S748,856,767.91,844s115.09-27.2,151.84-18.9,442.87-4.17,513.77,0,128.73,38,135.61,61.68S1534.49,950.86,1534.49,950.86Z" fill="#101111"/><path d="M862.1,849.34a68.94,68.94,0,1,1-68.93,68.94A68.93,68.93,0,0,1,862.1,849.34Z" fill="#292a2d"/><path d="M862,863.73a54.55,54.55,0,1,1-54.54,54.55A54.54,54.54,0,0,1,862,863.73Z" fill="#101111"/><path d="M1325,840.63H931l-113.4-92.36s60.25-40.07,126.56-41.43,225.24,0,225.24,0,112.13,21.28,174.61,72.22,41.36,61.57,41.36,61.57Z" fill="#66ccdb"/><polygon points="1059.91 837.47 1077.04 837.47 1008.21 704.2 991.08 704.2 1059.91 837.47" fill="#fff" opacity="0.5"/><polygon points="807.5 837.47 1043.54 837.47 971.4 698.06 868.12 717.34 807.5 837.47" fill="#fff" opacity="0.5"/><polygon points="1090 837.47 1098.57 837.47 1026.66 698.06 1018.1 698.06 1090 837.47" fill="#fff" opacity="0.5"/><path d="M868.12,870.11v30.44a18.79,18.79,0,0,1,7.56,4.85L903.59,893A48.53,48.53,0,0,0,868.12,870.11Z" fill="#d1e2e2"/><path d="M878.86,926.61l21.52,21.54A48.6,48.6,0,0,0,908.53,904l-27.8,12.31a17.55,17.55,0,0,1,.11,1.93A18.8,18.8,0,0,1,878.86,926.61Z" fill="#d1e2e2"/><path d="M820.61,893l27.91,12.37a18.79,18.79,0,0,1,7.56-4.85V870.11A48.55,48.55,0,0,0,820.61,893Z" fill="#d1e2e2"/><path d="M832.24,956.56a48.44,48.44,0,0,0,59.6.08L870.3,935.1a18.51,18.51,0,0,1-16.54-.06Z" fill="#d1e2e2"/><path d="M813.54,918.27A48.34,48.34,0,0,0,823.73,948l21.55-21.53a18.57,18.57,0,0,1-1.91-8.22c0-.65,0-1.3.1-1.93L815.68,904A48.21,48.21,0,0,0,813.54,918.27Z" fill="#d1e2e2"/><path d="M682.21,922.45c44.82,10.19,93,14.26,93,14.26l6.92.13a80.82,80.82,0,1,1,156.57,2.92l446.66,8.32a80.81,80.81,0,1,1,149.09,2.78l6.18.12h60.44s40.75-.69,40.75-28.53c0-11.25.75-42.2-5.64-43.89-1-4.15-2.09-8.31-3.34-12.4-1.8-20.47-15.3-37.87-28.37-45.58-26.49-15.62-216-42.11-216-42.11S1375,777.11,1341,764.21s-112.74-64.31-178.62-71.31-230.23-8.83-333.46,29.88-165.72,48.9-165.72,48.9v22.41s-4.07,15.72,3.4,25.86c0,0-.68,26.43-14.94,26.43,0,0-13.58.68-13.58,20.38S637.39,912.26,682.21,922.45ZM1579,896.73l55.26,5.09s0,11-1.52,16.46-3.57,8.75-9.17,10-28.53,0-28.53,0-8.91-1.78-11.46-8.91S1579,896.73,1579,896.73Zm-13.93-62.57s36.34,2.38,45.17,7.13,13.58,24.45,13.58,24.45C1576,861.33,1565.11,834.16,1565.11,834.16ZM848.94,753.68s54.55-47.44,212.87-47.44,209.26,44.25,280.16,79.7C1342,785.94,853.9,789.82,848.94,753.68Z" fill="#00519b"/><path d="M663.19,771.68v22.41s-4.07,15.72,3.4,25.86c0,0,17.25,37.42,75.65,29.39s100.52-46.31,210.54,0l444.23,19a80.78,80.78,0,0,1,131.07,5.6l108.14,4.62c-1-4.15-.84-4.21-2.09-8.3,0,0-44.76,1.5-87.77-36.1,0,0-19.72-12.25-79.81-20.2s-435-20.55-435-20.55ZM1125.7,817a9.68,9.68,0,0,1,9.68-9.68h12.22a9.68,9.68,0,1,1,0,19.36h-12.22A9.68,9.68,0,0,1,1125.7,817Zm-197.3-6.68a9.69,9.69,0,0,1,9.68-9.68h12.23a9.68,9.68,0,1,1,0,19.36H938.08A9.69,9.69,0,0,1,928.4,810.27Z" opacity="0.5" fill="url(#aff51daf-58f3-4171-ad07-1a3815f7cd92)" style="mix-blend-mode:screen"/><path d="M666.59,820c-7.47-10.14-3.4-25.86-3.4-25.86v-.68h24.15c24.72,0,17.94,9.51,17.94,9.51s-7.91,18.49-16.78,18.49H667.37C666.84,820.49,666.59,820,666.59,820Z" fill="#292a2d"/><path d="M686.65,804.72v.08a4.31,4.31,0,0,1-4.31,4.32H662.45a40,40,0,0,1-.22-8.72h20.11A4.31,4.31,0,0,1,686.65,804.72Z" fill="#e30006"/><path d="M852.19,918.28a9.85,9.85,0,1,0,9.85-9.85A9.84,9.84,0,0,0,852.19,918.28Z" fill="#d1e2e2"/><path d="M925.73,870.11c49.77,49.77,91.34,47.31,91.34,47.31l362.63.86a80.59,80.59,0,0,0,5.7,29.8l-446.66-8.32a80.78,80.78,0,0,0-13-69.65Z" fill="url(#a7eb9f49-fce4-43c1-a4eb-3e3a3a18669d)" style="mix-blend-mode:multiply"/><path d="M638.07,866.76c0-19.7,24.92,16.47,49.27,27.49,30.75,13.3,88.69,18.69,88.69,18.69-.23,11,2.47,20.25,6.14,23.9l-6.92-.13s-48.22-4.07-93-14.26S638.07,886.46,638.07,866.76Z" fill="url(#bee51c9b-040e-47b2-9fde-792d0dfc52cf)" style="mix-blend-mode:multiply"/><polygon points="989.2 881.86 1321.47 887.98 960.37 860.62 989.2 881.86" opacity="0.5" fill="url(#b3e410d8-cf5f-4f0f-837a-24069f07f921)" style="mix-blend-mode:screen"/><polygon points="890.98 779.2 904.48 779.2 889.18 727.93 880.7 727.93 890.98 779.2" fill="#00519b"/><path d="M919.75,810.27a3,3,0,0,0,3,3h42.91a3,3,0,0,0,3-3h0a3,3,0,0,0-3-3H922.74a3,3,0,0,0-3,3Z" opacity="0.5" fill="url(#af602378-22dc-4e84-b5c3-5aed63b725aa)" style="mix-blend-mode:screen"/><path d="M856.75,918.28a5.35,5.35,0,1,0,5.35-5.36A5.35,5.35,0,0,0,856.75,918.28Z" fill="#c3d1d1"/><path d="M868.13,900.55V886.76a32.05,32.05,0,0,1,20.19,13l-12.64,5.61A18.82,18.82,0,0,0,868.13,900.55Z" fill="#c3d1d1"/><path d="M880.84,918.27c0-.65,0-1.3-.1-1.93l12.55-5.56a31.9,31.9,0,0,1-4.67,25.59l-9.76-9.76A18.67,18.67,0,0,0,880.84,918.27Z" fill="#c3d1d1"/><path d="M843.37,918.27a18.45,18.45,0,0,0,1.92,8.22l-9.79,9.77a32,32,0,0,1-5.5-18,32.49,32.49,0,0,1,.91-7.5l12.56,5.56C843.41,917,843.37,917.62,843.37,918.27Z" fill="#c3d1d1"/><path d="M848.52,905.4l-12.64-5.61a32.1,32.1,0,0,1,20.2-13v13.79A18.79,18.79,0,0,0,848.52,905.4Z" fill="#c3d1d1"/><path d="M862.1,937a18.71,18.71,0,0,0,8.21-1.92l9.77,9.78a32.1,32.1,0,0,1-36.07-.09l9.75-9.75A18.87,18.87,0,0,0,862.1,937Z" fill="#c3d1d1"/><path d="M760.73,851.44a32.59,32.59,0,0,0-5.17.42,38,38,0,1,0-42.14,61.44,20,20,0,0,0-.26,3,19.34,19.34,0,0,0,38.67,0c0-.43,0-.85-.07-1.27a32.44,32.44,0,1,0,9-63.61Z" fill="#e2ce96" opacity="0.32"/><path d="M780.67,902.25a32.69,32.69,0,0,0-5.17.42,38,38,0,1,0-42.13,61.44,18.74,18.74,0,0,0-.26,3,19.33,19.33,0,1,0,38.66,0c0-.43,0-.85-.07-1.27a32.44,32.44,0,1,0,9-63.61Z" fill="#dbd3c1" opacity="0.32"/><path d="M812.17,864.67a32.6,32.6,0,0,0-5.17.41,38,38,0,1,0-42.14,61.44,20.06,20.06,0,0,0-.26,3,19.33,19.33,0,0,0,38.66,0c0-.43,0-.84-.06-1.26a32.78,32.78,0,0,0,9,1.26,32.44,32.44,0,0,0,0-64.87Z" fill="#cec8ba" opacity="0.32"/><path d="M841.72,899.78a33.36,33.36,0,0,0-5.18-.13,38,38,0,1,0-48.32,56.7,19.62,19.62,0,0,0-.58,3,19.33,19.33,0,1,0,38.45,4c0-.43.06-.85.07-1.27a32.44,32.44,0,1,0,15.56-62.32Z" fill="#e2ce96" opacity="0.32"/><path d="M812.17,901.57A32.6,32.6,0,0,0,807,902a38,38,0,1,0-42.14,61.44,20.06,20.06,0,0,0-.26,3,19.33,19.33,0,0,0,38.66,0c0-.43,0-.84-.06-1.26a32.78,32.78,0,0,0,9,1.26,32.44,32.44,0,0,0,0-64.87Z" fill="#e2ce96" opacity="0.32"/><path d="M846.07,835.18a32.69,32.69,0,0,0-5.17.41A38,38,0,1,0,798.77,897a18.84,18.84,0,0,0-.26,3,19.33,19.33,0,1,0,38.66,0c0-.43,0-.85-.07-1.27a32.43,32.43,0,1,0,9-63.6Z" fill="#e2ce96" opacity="0.32"/><path d="M744.81,971.7a32.69,32.69,0,0,1-5.17-.42,38,38,0,1,1-42.13-61.44,18.74,18.74,0,0,1-.26-3,19.33,19.33,0,1,1,38.66,0c0,.43,0,.85-.07,1.27a32.44,32.44,0,1,1,9,63.61Z" fill="#e2ce96" opacity="0.32"/></g></g></g></svg>