<svg id="b6916d95-eb69-41d9-9695-f1a31be49eb6" data-name="Layer 1" xmlns="http://www.w3.org/2000/svg" viewBox="0 0 24 13.87"><path d="M9.47,8.48a.62.62,0,0,0,.11.39A.32.32,0,0,0,9.84,9a.34.34,0,0,0,.26-.12.59.59,0,0,0,.11-.38.63.63,0,0,0-.11-.41A.33.33,0,0,0,9.83,8a.35.35,0,0,0-.26.13.69.69,0,0,0-.1.4m.73.68V9a.42.42,0,0,1-.38.2.53.53,0,0,1-.3-.09.58.58,0,0,1-.21-.25.87.87,0,0,1-.08-.37,1.06,1.06,0,0,1,.07-.37.54.54,0,0,1,.21-.26.53.53,0,0,1,.3-.09.53.53,0,0,1,.38.19V7.27h.23V9.16Z" fill="#6d6e70"/><path d="M10.84,8.35h.76a.42.42,0,0,0-.09-.26A.34.34,0,0,0,11.23,8a.37.37,0,0,0-.27.11.45.45,0,0,0-.12.29m.76.37.24,0a.57.57,0,0,1-.21.32.61.61,0,0,1-.39.12A.65.65,0,0,1,10.76,9a.77.77,0,0,1-.17-.52A.81.81,0,0,1,10.76,8a.65.65,0,0,1,.47-.19.55.55,0,0,1,.44.19.71.71,0,0,1,.18.52.2.2,0,0,1,0,.07h-1a.55.55,0,0,0,.12.34.4.4,0,0,0,.29.12.34.34,0,0,0,.22-.07.43.43,0,0,0,.14-.21" fill="#6d6e70"/><path d="M13.2,9.16l-.73-1.89h.27l.49,1.37c0,.11.07.22.1.31a2.22,2.22,0,0,1,.1-.31l.51-1.37h.25l-.74,1.89Z" fill="#6d6e70"/><path d="M14.44,8.35h.77a.42.42,0,0,0-.09-.26A.36.36,0,0,0,14.83,8a.4.4,0,0,0-.27.11.45.45,0,0,0-.12.29m.76.37.24,0a.57.57,0,0,1-.21.32A.7.7,0,0,1,14.37,9a.73.73,0,0,1-.18-.52A.77.77,0,0,1,14.37,8a.63.63,0,0,1,.46-.19.58.58,0,0,1,.45.19.76.76,0,0,1,.17.52v.07h-1a.5.5,0,0,0,.13.34.36.36,0,0,0,.28.12.32.32,0,0,0,.22-.07.37.37,0,0,0,.14-.21" fill="#6d6e70"/><path d="M15.62,9.16V7.79h.21V8a.49.49,0,0,1,.43-.23.59.59,0,0,1,.23,0,.34.34,0,0,1,.22.28,1.13,1.13,0,0,1,0,.23v.84H16.5V8.33a.51.51,0,0,0,0-.21.18.18,0,0,0-.1-.11.28.28,0,0,0-.16,0,.37.37,0,0,0-.25.1.42.42,0,0,0-.11.35v.75Z" fill="#6d6e70"/><path d="M17.14,8.35h.76a.5.5,0,0,0-.08-.26.38.38,0,0,0-.56,0,.45.45,0,0,0-.12.29m.76.37.24,0a.57.57,0,0,1-.21.32.61.61,0,0,1-.39.12A.65.65,0,0,1,17.06,9a.77.77,0,0,1-.17-.52A.77.77,0,0,1,17.07,8a.61.61,0,0,1,.46-.19A.55.55,0,0,1,18,8a.71.71,0,0,1,.18.52v.07h-1a.55.55,0,0,0,.12.34.4.4,0,0,0,.29.12.32.32,0,0,0,.22-.07.37.37,0,0,0,.14-.21" fill="#6d6e70"/><path d="M18.19,9.16V9l.87-1h-.82V7.79h1.12V8l-.74.86L18.48,9h.92v.2Z" fill="#6d6e70"/><path d="M20.41,9.16V9a.51.51,0,0,1-.43.23.59.59,0,0,1-.23,0A.5.5,0,0,1,19.59,9a.87.87,0,0,1-.07-.17,1.28,1.28,0,0,1,0-.22V7.79h.23v.76c0,.12,0,.2,0,.25a.28.28,0,0,0,.1.14A.29.29,0,0,0,20,9a.46.46,0,0,0,.2-.05.37.37,0,0,0,.13-.15.85.85,0,0,0,0-.27V7.79h.23V9.16Z" fill="#6d6e70"/><path d="M21,8.35h.76a.42.42,0,0,0-.09-.26A.35.35,0,0,0,21.43,8a.37.37,0,0,0-.27.11.45.45,0,0,0-.12.29m.76.37.24,0a.57.57,0,0,1-.21.32A.71.71,0,0,1,21,9a.73.73,0,0,1-.17-.52A.81.81,0,0,1,21,8a.64.64,0,0,1,.46-.19.57.57,0,0,1,.45.19.71.71,0,0,1,.17.52v.07H21a.5.5,0,0,0,.12.34.38.38,0,0,0,.29.12.31.31,0,0,0,.21-.07.44.44,0,0,0,.15-.21" fill="#6d6e70"/><rect x="22.21" y="7.27" width="0.23" height="1.88" fill="#6d6e70"/><path d="M23.55,8.47a1.24,1.24,0,0,1-.38.09.64.64,0,0,0-.2,0,.16.16,0,0,0-.09.07.23.23,0,0,0,0,.11.2.2,0,0,0,.07.16.3.3,0,0,0,.2.06A.48.48,0,0,0,23.36,9a.33.33,0,0,0,.15-.16.47.47,0,0,0,0-.23Zm0,.52a.83.83,0,0,1-.25.15.7.7,0,0,1-.25,0,.52.52,0,0,1-.35-.11.36.36,0,0,1-.12-.28.35.35,0,0,1,0-.18.41.41,0,0,1,.12-.14.46.46,0,0,1,.16-.07.87.87,0,0,1,.21,0,2,2,0,0,0,.41-.08V8.23a.28.28,0,0,0-.06-.2A.41.41,0,0,0,23.22,8,.43.43,0,0,0,23,8a.35.35,0,0,0-.11.2l-.23,0a.7.7,0,0,1,.1-.23A.46.46,0,0,1,23,7.81a1,1,0,0,1,.31,0,1,1,0,0,1,.28,0,.41.41,0,0,1,.16.11.26.26,0,0,1,.07.16.84.84,0,0,1,0,.21v.31a3.8,3.8,0,0,0,0,.41.52.52,0,0,0,.06.16h-.24A.48.48,0,0,1,23.57,9" fill="#6d6e70"/><path d="M10.18,4.05V3.83H11v.7a1.49,1.49,0,0,1-.38.22,1.12,1.12,0,0,1-.4.07,1.19,1.19,0,0,1-.51-.11.82.82,0,0,1-.34-.35,1.06,1.06,0,0,1-.12-.5,1.14,1.14,0,0,1,.12-.52A.75.75,0,0,1,9.68,3a1,1,0,0,1,.5-.12,1.11,1.11,0,0,1,.37.07.7.7,0,0,1,.25.18.75.75,0,0,1,.15.31l-.23.07a.71.71,0,0,0-.1-.23.35.35,0,0,0-.18-.13.58.58,0,0,0-.26-.05.9.9,0,0,0-.3.05.6.6,0,0,0-.2.14.71.71,0,0,0-.12.18,1,1,0,0,0-.07.38.87.87,0,0,0,.09.42.53.53,0,0,0,.25.26.85.85,0,0,0,.35.08.91.91,0,0,0,.32-.06.92.92,0,0,0,.23-.14V4.05Z" fill="#6d6e70"/><path d="M11.35,4.11a.57.57,0,0,0,.12.39.34.34,0,0,0,.28.13A.36.36,0,0,0,12,4.5a.64.64,0,0,0,.11-.4A.57.57,0,0,0,12,3.72a.36.36,0,0,0-.29-.13.34.34,0,0,0-.28.13.54.54,0,0,0-.12.39m-.24,0a.7.7,0,0,1,.21-.56.65.65,0,0,1,.43-.16.63.63,0,0,1,.46.19.69.69,0,0,1,.18.51.93.93,0,0,1-.08.41.59.59,0,0,1-.23.24.73.73,0,0,1-.33.08.62.62,0,0,1-.46-.18.72.72,0,0,1-.18-.53" fill="#6d6e70"/><path d="M12.76,4.1a.76.76,0,0,0,.06.35.35.35,0,0,0,.3.18.32.32,0,0,0,.26-.13.57.57,0,0,0,.11-.39.64.64,0,0,0-.1-.4.34.34,0,0,0-.26-.12.32.32,0,0,0-.26.13.54.54,0,0,0-.11.38m0,.69h-.21V2.91h.23v.67a.45.45,0,0,1,.37-.19.53.53,0,0,1,.24.06.42.42,0,0,1,.18.14.66.66,0,0,1,.12.22.86.86,0,0,1,0,.28.81.81,0,0,1-.17.54.55.55,0,0,1-.42.19.44.44,0,0,1-.38-.2Z" fill="#6d6e70"/><path d="M13.9,4.79h.23V3.43H13.9Zm0-1.62h.23V2.91H13.9Z" fill="#6d6e70"/><path d="M14.54,4h.76a.44.44,0,0,0-.09-.26.34.34,0,0,0-.28-.13.36.36,0,0,0-.27.1.45.45,0,0,0-.12.29m.76.37.24,0a.63.63,0,0,1-.21.33.67.67,0,0,1-.39.11.65.65,0,0,1-.48-.18.77.77,0,0,1-.17-.52.77.77,0,0,1,.17-.53.61.61,0,0,1,.46-.2.59.59,0,0,1,.45.19.74.74,0,0,1,.18.53.18.18,0,0,1,0,.06h-1a.55.55,0,0,0,.12.34.38.38,0,0,0,.29.12.34.34,0,0,0,.22-.07.43.43,0,0,0,.14-.21" fill="#6d6e70"/><path d="M15.71,4.79V3.43h.21v.2a.66.66,0,0,1,.14-.19.3.3,0,0,1,.15,0,.46.46,0,0,1,.24.08l-.08.21a.34.34,0,0,0-.17-.05.21.21,0,0,0-.13.05.25.25,0,0,0-.09.13.77.77,0,0,0,0,.27v.71Z" fill="#6d6e70"/><path d="M16.47,4.79V3.43h.21v.19a.5.5,0,0,1,.44-.23.54.54,0,0,1,.22,0,.4.4,0,0,1,.16.12.38.38,0,0,1,.07.17,1.16,1.16,0,0,1,0,.22v.84h-.23V4a.58.58,0,0,0,0-.21.19.19,0,0,0-.09-.11.29.29,0,0,0-.16,0,.39.39,0,0,0-.26.09.47.47,0,0,0-.11.36v.74Z" fill="#6d6e70"/><path d="M18,4.11a.57.57,0,0,0,.12.39.35.35,0,0,0,.29.13.34.34,0,0,0,.28-.13.58.58,0,0,0,.12-.4.52.52,0,0,0-.12-.38.35.35,0,0,0-.28-.13.35.35,0,0,0-.29.13.54.54,0,0,0-.12.39m-.23,0A.7.7,0,0,1,18,3.55a.63.63,0,0,1,.43-.16.64.64,0,0,1,.46.19.69.69,0,0,1,.17.51.81.81,0,0,1-.08.41.56.56,0,0,1-.22.24.8.8,0,0,1-.33.08.63.63,0,0,1-.47-.18.72.72,0,0,1-.17-.53" fill="#6d6e70"/><path d="M9.61,6.17v.5h.62a.21.21,0,0,0,.13-.07.23.23,0,0,0,.06-.16.33.33,0,0,0,0-.15.2.2,0,0,0-.12-.08,1.2,1.2,0,0,0-.34,0Zm0-.75v.43h.53a.24.24,0,0,0,.15-.07.2.2,0,0,0,.06-.15.24.24,0,0,0,0-.14.2.2,0,0,0-.14-.06H9.61Zm-.38-.31H10a1.43,1.43,0,0,1,.33,0,.48.48,0,0,1,.2.07.56.56,0,0,1,.14.16.43.43,0,0,1,.06.22.48.48,0,0,1-.07.24.42.42,0,0,1-.2.17.47.47,0,0,1,.27.17.45.45,0,0,1,.09.28.54.54,0,0,1-.06.25.46.46,0,0,1-.16.2.54.54,0,0,1-.26.09H9.23Z" fill="#404041"/><path d="M11.3,6.31a.43.43,0,0,0,.1.31.3.3,0,0,0,.24.11.3.3,0,0,0,.23-.11.43.43,0,0,0,.1-.31.41.41,0,0,0-.1-.31.27.27,0,0,0-.23-.11A.28.28,0,0,0,11.4,6a.41.41,0,0,0-.1.31m-.37,0A.73.73,0,0,1,11,5.94a.63.63,0,0,1,.25-.26.74.74,0,0,1,.36-.09.66.66,0,0,1,.51.21.69.69,0,0,1,.2.5.73.73,0,0,1-.2.52.69.69,0,0,1-.5.2.86.86,0,0,1-.36-.08A.63.63,0,0,1,11,6.69a.82.82,0,0,1-.09-.4" fill="#404041"/><rect x="12.51" y="5.11" width="0.36" height="1.88" fill="#404041"/><path d="M13.12,5.63h.36V7h-.36Zm0-.52h.36v.33h-.36Z" fill="#404041"/><path d="M14.11,7l-.55-1.37h.38l.26.7.07.23a.51.51,0,0,0,0-.11l0-.12.26-.7H15L14.44,7Z" fill="#404041"/><path d="M15.84,6.33l-.22.06a.68.68,0,0,0-.2.06.19.19,0,0,0-.07.13.18.18,0,0,0,.06.13.2.2,0,0,0,.14.06.34.34,0,0,0,.19-.07.27.27,0,0,0,.09-.12.72.72,0,0,0,0-.17ZM15.36,6,15,6a.51.51,0,0,1,.19-.29.71.71,0,0,1,.4-.1.84.84,0,0,1,.36.06.42.42,0,0,1,.17.15.79.79,0,0,1,0,.32v.42a1.65,1.65,0,0,0,0,.27.94.94,0,0,0,.06.18h-.35a.43.43,0,0,1,0-.11.08.08,0,0,1,0,0,.66.66,0,0,1-.2.14.54.54,0,0,1-.22,0,.5.5,0,0,1-.34-.11A.4.4,0,0,1,15,6.62a.37.37,0,0,1,.06-.21.34.34,0,0,1,.15-.14,1.16,1.16,0,0,1,.29-.08,1.68,1.68,0,0,0,.35-.09v0a.18.18,0,0,0-.05-.14.32.32,0,0,0-.2,0,.24.24,0,0,0-.15,0,.26.26,0,0,0-.08.13" fill="#404041"/><path d="M16.78,7h-.36V5.62h.34v.2a.47.47,0,0,1,.15-.18.3.3,0,0,1,.16,0,.48.48,0,0,1,.23.07L17.19,6A.32.32,0,0,0,17,5.92a.2.2,0,0,0-.13,0,.35.35,0,0,0-.08.15,2.18,2.18,0,0,0,0,.46Z" fill="#404041"/><path d="M17.34,5.63h.36V7h-.36Zm0-.52h.36v.33h-.36Z" fill="#404041"/><path d="M18.71,6.33l-.22.06a.59.59,0,0,0-.19.06.16.16,0,0,0-.07.13.17.17,0,0,0,.05.13.2.2,0,0,0,.15.06.34.34,0,0,0,.18-.07.18.18,0,0,0,.09-.12.72.72,0,0,0,0-.17ZM18.23,6,17.9,6a.51.51,0,0,1,.19-.29.74.74,0,0,1,.4-.1.84.84,0,0,1,.36.06A.36.36,0,0,1,19,5.8a.75.75,0,0,1,.05.32v.42a1.65,1.65,0,0,0,0,.27.6.6,0,0,0,.07.18h-.36l0-.11s0,0,0,0a.66.66,0,0,1-.2.14.54.54,0,0,1-.22,0A.49.49,0,0,1,18,6.91a.37.37,0,0,1-.13-.29.37.37,0,0,1,.06-.21.4.4,0,0,1,.15-.14,1.3,1.3,0,0,1,.29-.08,1.52,1.52,0,0,0,.35-.09v0c0-.07,0-.11-.05-.14a.29.29,0,0,0-.19,0,.21.21,0,0,0-.15,0,.22.22,0,0,0-.09.13" fill="#404041"/><path d="M20.55,7h-.36v-.7a1.43,1.43,0,0,0,0-.28.21.21,0,0,0-.08-.1.18.18,0,0,0-.13,0,.29.29,0,0,0-.27.19,1.85,1.85,0,0,0,0,.31V7h-.36V5.62h.33v.21a.53.53,0,0,1,.67-.19.35.35,0,0,1,.22.26,1.44,1.44,0,0,1,0,.24Z" fill="#404041"/><path d="M21.09,6.31a.48.48,0,0,0,.09.31.34.34,0,0,0,.24.11.32.32,0,0,0,.24-.11.48.48,0,0,0,.09-.31A.46.46,0,0,0,21.66,6a.29.29,0,0,0-.24-.11.3.3,0,0,0-.24.11.46.46,0,0,0-.09.31m-.37,0a.73.73,0,0,1,.09-.35.57.57,0,0,1,.25-.26.71.71,0,0,1,.36-.09.66.66,0,0,1,.51.21.69.69,0,0,1,.2.5.69.69,0,0,1-.71.72.94.94,0,0,1-.36-.08.55.55,0,0,1-.25-.25.82.82,0,0,1-.09-.4" fill="#404041"/><path d="M8.12,2.57V5.16c-.17.13-.35.27-.54.39a5.28,5.28,0,0,1-2.33.73L5,4.4a6,6,0,0,0,2.18-1,5,5,0,0,0,1-.87" fill="#2a5fab"/><path d="M0,6.57V9.19A12,12,0,0,1,2.52,6.72a7.19,7.19,0,0,1,2.72-.94L4.89,3.92a4.39,4.39,0,0,0-3,.77A5.22,5.22,0,0,0,0,6.57" fill="#2a5fab"/><path d="M4.9,3.94A5.64,5.64,0,0,0,2,4.63a8.06,8.06,0,0,0-2,2V4.19A4.84,4.84,0,0,1,1.85,2.62,6.36,6.36,0,0,1,4.6,2.05Z" fill="#faed3a"/><path d="M0,9.18A9.24,9.24,0,0,1,2.45,6.75a6,6,0,0,1,2.74-1L5.5,7.68A3,3,0,0,0,4,8,7.39,7.39,0,0,0,2.53,9.18Z" fill="#ed2f24"/><polygon points="6.32 5.32 6.26 5.05 5.98 5.02 6.22 4.88 6.16 4.61 6.37 4.79 6.61 4.64 6.5 4.9 6.71 5.08 6.43 5.06 6.32 5.32" fill="#fff"/><polygon points="7.3 4.86 7.24 4.58 6.96 4.56 7.2 4.42 7.13 4.14 7.34 4.33 7.58 4.18 7.47 4.44 7.68 4.63 7.41 4.6 7.3 4.86" fill="#fff"/><polygon points="1.04 7.19 0.76 7.16 0.65 7.42 0.59 7.15 0.31 7.12 0.55 6.98 0.49 6.71 0.7 6.89 0.94 6.75 0.83 7 1.04 7.19" fill="#fff"/><polygon points="3.77 5.29 3.49 5.26 3.38 5.52 3.32 5.25 3.04 5.22 3.28 5.08 3.22 4.8 3.43 4.99 3.67 4.84 3.56 5.1 3.77 5.29" fill="#fff"/><polygon points="2.76 5.76 2.48 5.74 2.38 6 2.31 5.72 2.03 5.7 2.27 5.55 2.21 5.28 2.42 5.47 2.66 5.32 2.55 5.58 2.76 5.76" fill="#fff"/><polygon points="1.85 6.44 1.57 6.41 1.47 6.67 1.4 6.4 1.12 6.37 1.36 6.23 1.3 5.96 1.51 6.14 1.75 6 1.64 6.25 1.85 6.44" fill="#fff"/><polygon points="4.83 5.1 4.55 5.08 4.44 5.33 4.38 5.06 4.1 5.03 4.34 4.89 4.28 4.62 4.49 4.8 4.73 4.66 4.62 4.92 4.83 5.1" fill="#fff"/><path d="M8.12,2.57a5,5,0,0,1-1,.87A6,6,0,0,1,5,4.4l-.3-1.93a5.41,5.41,0,0,0,1.56-.65A5,5,0,0,0,8.12,0Z" fill="#faed3a"/><path d="M5.25,6.28a5.28,5.28,0,0,0,2.33-.73c.19-.12.37-.26.54-.39V7.38A6.49,6.49,0,0,1,7,7.91a7.32,7.32,0,0,1-1.45.39Z" fill="#ed2f24"/><polygon points="5.3 5.58 5.24 5.31 5.12 5.3 5.1 5.21 5.2 5.14 5.14 4.87 5.35 5.06 5.59 4.91 5.48 5.17 5.69 5.35 5.41 5.33 5.3 5.58" fill="#fff"/><line x1="0.02" y1="10.35" x2="24" y2="10.35" fill="none" stroke="#6d6e70" stroke-miterlimit="10" stroke-width="0.2"/><path d="M.1,12.29v-.95H.29L.51,12l.05.14,0-.15.22-.66H1v.95H.88V11.5l-.27.79H.49l-.27-.81v.81Z" fill="#6d6e70"/><path d="M1.18,11.47v-.13H1.3v.13Zm0,.82V11.6H1.3v.69Z" fill="#6d6e70"/><path d="M1.46,12.29V11.6h.1v.1a.24.24,0,0,1,.22-.11.25.25,0,0,1,.12,0,.11.11,0,0,1,.07.06.2.2,0,0,1,0,.08s0,.06,0,.12v.42H1.9v-.42a.34.34,0,0,0,0-.11l0,0a.11.11,0,0,0-.08,0,.18.18,0,0,0-.13,0,.24.24,0,0,0-.06.18v.38Z" fill="#6d6e70"/><path d="M2.18,11.47v-.13H2.3v.13Zm0,.82V11.6H2.3v.69Z" fill="#6d6e70"/><path d="M2.41,12.08h.12a.16.16,0,0,0,.05.1.17.17,0,0,0,.13,0,.21.21,0,0,0,.12,0s0,0,0-.08a.07.07,0,0,0,0-.06.31.31,0,0,0-.12,0l-.18-.06s0,0-.07-.06a.17.17,0,0,1,0-.1.11.11,0,0,1,0-.08.18.18,0,0,1,0-.07l.08,0h.1a.32.32,0,0,1,.14,0,.2.2,0,0,1,.09.06.28.28,0,0,1,0,.11H2.85a.14.14,0,0,0-.05-.08.15.15,0,0,0-.1,0,.17.17,0,0,0-.12,0,.09.09,0,0,0,0,.06s0,0,0,0l0,0,.1,0,.17.06A.16.16,0,0,1,3,12a.15.15,0,0,1,0,.1.23.23,0,0,1,0,.11.21.21,0,0,1-.1.08l-.14,0a.41.41,0,0,1-.21-.05A.34.34,0,0,1,2.41,12.08Z" fill="#6d6e70"/><path d="M3.36,12.18l0,.11H3.29l-.1,0s0,0,0-.06a.31.31,0,0,1,0-.13v-.4H3.05V11.6h.08v-.17l.12-.07v.24h.11v.09H3.25v.47l0,0h.09Z" fill="#6d6e70"/><path d="M3.93,12.07h.12a.32.32,0,0,1-.1.17.39.39,0,0,1-.2.05.32.32,0,0,1-.24-.09A.35.35,0,0,1,3.43,12a.46.46,0,0,1,.08-.27.32.32,0,0,1,.24-.09.29.29,0,0,1,.22.09.36.36,0,0,1,.09.26v0H3.55a.24.24,0,0,0,.06.18.2.2,0,0,0,.14.06.14.14,0,0,0,.11,0A.15.15,0,0,0,3.93,12.07Zm-.38-.19h.38a.17.17,0,0,0,0-.13.16.16,0,0,0-.14-.07.18.18,0,0,0-.14.06A.26.26,0,0,0,3.55,11.88Z" fill="#6d6e70"/><path d="M4.19,12.29V11.6h.1v.11c0-.05,0-.09.07-.1a.12.12,0,0,1,.08,0l.12,0,0,.11a.15.15,0,0,0-.09,0,.1.1,0,0,0-.07,0s0,0,0,.06a.59.59,0,0,0,0,.14v.36Z" fill="#6d6e70"/><path d="M4.61,11.47v-.13h.12v.13Zm0,.82V11.6h.12v.69Z" fill="#6d6e70"/><path d="M4.85,12A.37.37,0,0,1,5,11.66a.31.31,0,0,1,.21-.07.3.3,0,0,1,.23.09.36.36,0,0,1,.09.26.4.4,0,0,1,0,.2.25.25,0,0,1-.11.12.33.33,0,0,1-.17,0,.32.32,0,0,1-.23-.09A.36.36,0,0,1,4.85,12ZM5,12a.27.27,0,0,0,.06.19.17.17,0,0,0,.14.07.18.18,0,0,0,.15-.07.28.28,0,0,0,0-.2.27.27,0,0,0,0-.19.18.18,0,0,0-.15-.07.17.17,0,0,0-.14.07A.28.28,0,0,0,5,12Z" fill="#6d6e70"/><path d="M6.42,12.29V12.2a.22.22,0,0,1-.2.1.28.28,0,0,1-.15,0,.27.27,0,0,1-.1-.13.34.34,0,0,1,0-.18.54.54,0,0,1,0-.19.28.28,0,0,1,.11-.13.24.24,0,0,1,.15,0l.11,0a.27.27,0,0,1,.08.07v-.34h.11v.95ZM6.05,12a.33.33,0,0,0,0,.19.17.17,0,0,0,.14.07.14.14,0,0,0,.12-.06A.29.29,0,0,0,6.42,12a.29.29,0,0,0-.06-.21.15.15,0,0,0-.13-.07.16.16,0,0,0-.13.07A.32.32,0,0,0,6.05,12Z" fill="#6d6e70"/><path d="M7.16,12.07h.12a.32.32,0,0,1-.1.17.39.39,0,0,1-.2.05.32.32,0,0,1-.24-.09A.35.35,0,0,1,6.66,12a.4.4,0,0,1,.08-.27A.32.32,0,0,1,7,11.59a.29.29,0,0,1,.22.09.36.36,0,0,1,.09.26v0H6.78a.24.24,0,0,0,.06.18.18.18,0,0,0,.14.06.15.15,0,0,0,.11,0A.15.15,0,0,0,7.16,12.07Zm-.38-.19h.38a.22.22,0,0,0,0-.13A.16.16,0,0,0,7,11.68a.18.18,0,0,0-.14.06A.26.26,0,0,0,6.78,11.88Z" fill="#6d6e70"/><path d="M7.41,12.29v-.95h.12v.95Z" fill="#6d6e70"/><path d="M8.07,12.29v-.95h.5l.11,0a.25.25,0,0,1,.08.1.24.24,0,0,1,0,.12.3.3,0,0,1-.08.21.39.39,0,0,1-.28.08H8.19v.39Zm.12-.5h.25a.27.27,0,0,0,.17,0,.19.19,0,0,0,.05-.13.15.15,0,0,0,0-.1.16.16,0,0,0-.08-.06H8.19Z" fill="#6d6e70"/><path d="M8.88,12a.37.37,0,0,1,.1-.29.32.32,0,0,1,.22-.07.32.32,0,0,1,.23.09.36.36,0,0,1,.09.26.4.4,0,0,1,0,.2.34.34,0,0,1-.12.12.29.29,0,0,1-.16,0A.29.29,0,0,1,9,12.21.36.36,0,0,1,8.88,12ZM9,12a.33.33,0,0,0,.05.19.18.18,0,0,0,.15.07.16.16,0,0,0,.14-.07.28.28,0,0,0,.06-.2.27.27,0,0,0-.06-.19.16.16,0,0,0-.14-.07.18.18,0,0,0-.15.07A.34.34,0,0,0,9,12Z" fill="#6d6e70"/><path d="M10.09,12.29V12.2a.22.22,0,0,1-.19.1.24.24,0,0,1-.15,0,.24.24,0,0,1-.11-.13.34.34,0,0,1,0-.18.38.38,0,0,1,0-.19.22.22,0,0,1,.1-.13.24.24,0,0,1,.15,0l.11,0a.27.27,0,0,1,.08.07v-.34h.12v.95ZM9.72,12a.27.27,0,0,0,.06.19.15.15,0,0,0,.13.07.18.18,0,0,0,.13-.06.42.42,0,0,0,0-.4.17.17,0,0,0-.14-.07.16.16,0,0,0-.13.07A.32.32,0,0,0,9.72,12Z" fill="#6d6e70"/><path d="M10.84,12.07H11a.34.34,0,0,1-.11.17.39.39,0,0,1-.2.05.29.29,0,0,1-.23-.09.36.36,0,0,1-.09-.26.4.4,0,0,1,.09-.27.3.3,0,0,1,.23-.09.29.29,0,0,1,.22.09.36.36,0,0,1,.09.26v0h-.51a.24.24,0,0,0,.06.18.2.2,0,0,0,.14.06.14.14,0,0,0,.11,0A.21.21,0,0,0,10.84,12.07Zm-.39-.19h.39a.22.22,0,0,0-.05-.13.15.15,0,0,0-.14-.07.2.2,0,0,0-.14.06A.26.26,0,0,0,10.45,11.88Z" fill="#6d6e70"/><path d="M11.09,12.29V11.6h.1v.11c0-.05.05-.09.08-.1a.08.08,0,0,1,.07,0l.12,0,0,.11a.15.15,0,0,0-.09,0,.07.07,0,0,0-.06,0,.15.15,0,0,0,0,.06.59.59,0,0,0,0,.14v.36Z" fill="#6d6e70"/><path d="M11.88,12.29v-.95h.51l.11,0a.39.39,0,0,1,.08.1.24.24,0,0,1,0,.12.3.3,0,0,1-.08.21.39.39,0,0,1-.28.08H12v.39Zm.13-.5h.24a.28.28,0,0,0,.18,0,.19.19,0,0,0,.05-.13.15.15,0,0,0,0-.1.16.16,0,0,0-.08-.06H12Z" fill="#6d6e70"/><path d="M12.7,12a.37.37,0,0,1,.1-.29.32.32,0,0,1,.22-.07.32.32,0,0,1,.23.09.36.36,0,0,1,.09.26.54.54,0,0,1,0,.2.34.34,0,0,1-.12.12.29.29,0,0,1-.16,0,.32.32,0,0,1-.24-.09A.4.4,0,0,1,12.7,12Zm.11,0a.27.27,0,0,0,.06.19.18.18,0,0,0,.15.07.17.17,0,0,0,.14-.07.28.28,0,0,0,.06-.2.27.27,0,0,0-.06-.19.17.17,0,0,0-.14-.07.18.18,0,0,0-.15.07A.28.28,0,0,0,12.81,12Z" fill="#6d6e70"/><path d="M13.46,12.55v-1h.11v.09l.08-.08.12,0a.26.26,0,0,1,.15,0,.22.22,0,0,1,.1.13.34.34,0,0,1,0,.18.58.58,0,0,1,0,.19.27.27,0,0,1-.26.17.2.2,0,0,1-.11,0l-.07-.06v.33Zm.11-.6a.26.26,0,0,0,0,.19.16.16,0,0,0,.13.07.15.15,0,0,0,.13-.07.28.28,0,0,0,.06-.2.3.3,0,0,0-.06-.2.16.16,0,0,0-.12-.06.17.17,0,0,0-.14.07A.34.34,0,0,0,13.57,12Z" fill="#6d6e70"/><path d="M14.63,12.29v-.1a.25.25,0,0,1-.21.11.25.25,0,0,1-.12,0,.24.24,0,0,1-.08-.06l0-.08a.34.34,0,0,1,0-.11V11.6h.12v.51a.18.18,0,0,0,0,.07l.09,0,.1,0a.16.16,0,0,0,.06-.08.39.39,0,0,0,0-.13V11.6h.12v.69Z" fill="#6d6e70"/><path d="M14.9,12.29v-.95H15v.95Z" fill="#6d6e70"/><path d="M15.63,12.2a.28.28,0,0,1-.12.08.27.27,0,0,1-.13,0,.23.23,0,0,1-.17-.05.2.2,0,0,1-.06-.14.3.3,0,0,1,0-.1l.06-.06.08,0,.11,0a.69.69,0,0,0,.2,0v0a.13.13,0,0,0,0-.1.22.22,0,0,0-.13,0,.21.21,0,0,0-.12,0,.14.14,0,0,0-.06.1h-.11a.22.22,0,0,1,.05-.12.26.26,0,0,1,.1-.07.41.41,0,0,1,.16,0,.3.3,0,0,1,.14,0,.16.16,0,0,1,.08.05.2.2,0,0,1,0,.08V12a1,1,0,0,0,0,.21.41.41,0,0,0,0,.08h-.12A.94.94,0,0,1,15.63,12.2Zm0-.26a.56.56,0,0,1-.18.05l-.11,0,0,0s0,0,0,0a.09.09,0,0,0,0,.08.13.13,0,0,0,.1,0l.12,0a.2.2,0,0,0,.08-.08.31.31,0,0,0,0-.11Z" fill="#6d6e70"/><path d="M15.91,12.29V11.6H16v.11c0-.05,0-.09.08-.1a.08.08,0,0,1,.07,0l.12,0,0,.11a.13.13,0,0,0-.08,0,.08.08,0,0,0-.07,0,.15.15,0,0,0-.05.06.59.59,0,0,0,0,.14v.36Z" fill="#6d6e70"/><path d="M.09,13.87v-.95h.1V13a.28.28,0,0,1,.09-.07.2.2,0,0,1,.11,0,.29.29,0,0,1,.16,0,.32.32,0,0,1,.1.13.57.57,0,0,1,0,.18.54.54,0,0,1,0,.19.28.28,0,0,1-.11.13.3.3,0,0,1-.15.05.2.2,0,0,1-.11,0,.16.16,0,0,1-.08-.06v.33Zm.1-.6a.28.28,0,0,0,.06.2.16.16,0,0,0,.13.06.18.18,0,0,0,.13-.06.33.33,0,0,0,.06-.21.25.25,0,0,0-.06-.19A.15.15,0,0,0,.38,13a.16.16,0,0,0-.13.07A.3.3,0,0,0,.19,13.27Z" fill="#6d6e70"/><path d="M1.26,13.53a.42.42,0,0,1-.13.07l-.12,0a.24.24,0,0,1-.18-.06.18.18,0,0,1-.06-.14.29.29,0,0,1,0-.09l.06-.07.09,0H1l.21,0v0a.16.16,0,0,0,0-.11.26.26,0,0,0-.14,0L1,13a.23.23,0,0,0,0,.11l-.12,0a.33.33,0,0,1,0-.12A.3.3,0,0,1,1,12.93l.15,0,.14,0a.12.12,0,0,1,.08.05.2.2,0,0,1,0,.08s0,.06,0,.11v.36l0,.08H1.28A.19.19,0,0,1,1.26,13.53Zm0-.26-.19,0-.1,0,0,0a.13.13,0,0,0,0,.06.09.09,0,0,0,0,.07.15.15,0,0,0,.1,0,.21.21,0,0,0,.12,0,.2.2,0,0,0,.08-.08.37.37,0,0,0,0-.12Z" fill="#6d6e70"/><path d="M1.53,13.61v-.69h.11V13a.29.29,0,0,1,.07-.1l.08,0a.19.19,0,0,1,.11,0l0,.1-.08,0-.07,0a.16.16,0,0,0,0,.07.51.51,0,0,0,0,.13v.36Z" fill="#6d6e70"/><path d="M2.41,13.53a.42.42,0,0,1-.13.07.24.24,0,0,1-.12,0A.24.24,0,0,1,2,13.57a.18.18,0,0,1-.06-.14.29.29,0,0,1,0-.09L2,13.27l.09,0h.1l.21,0v0a.16.16,0,0,0,0-.11.26.26,0,0,0-.14,0l-.12,0a.23.23,0,0,0,0,.11l-.12,0A.33.33,0,0,1,2,13a.3.3,0,0,1,.11-.07l.15,0,.14,0a.12.12,0,0,1,.08.05.2.2,0,0,1,0,.08s0,.06,0,.11v.36l0,.08H2.43A.19.19,0,0,1,2.41,13.53Zm0-.26-.19,0-.1,0,0,0a.13.13,0,0,0,0,.06.09.09,0,0,0,0,.07.15.15,0,0,0,.1,0,.21.21,0,0,0,.12,0,.2.2,0,0,0,.08-.08.37.37,0,0,0,0-.12Z" fill="#6d6e70"/><path d="M3.51,13.39h.12a.3.3,0,0,1-.11.17.29.29,0,0,1-.19.06.3.3,0,0,1-.24-.1A.34.34,0,0,1,3,13.27.4.4,0,0,1,3.09,13a.3.3,0,0,1,.23-.09.28.28,0,0,1,.22.09.38.38,0,0,1,.09.27v0H3.12a.24.24,0,0,0,.06.17.22.22,0,0,0,.26,0A.3.3,0,0,0,3.51,13.39Zm-.38-.19h.38a.22.22,0,0,0,0-.13A.17.17,0,0,0,3.32,13a.16.16,0,0,0-.13.06A.17.17,0,0,0,3.13,13.2Z" fill="#6d6e70"/><path d="M3.76,13.61v-.95h.11v.95Z" fill="#6d6e70"/><path d="M4.62,13.61v-.79H4.34v-.16h.75v.16H4.81v.79Z" fill="#404041"/><path d="M5.3,13.61H5.12v-.69h.17V13a.35.35,0,0,1,.07-.09l.08,0,.12,0,0,.16-.09,0-.06,0a.16.16,0,0,0-.05.08,1.23,1.23,0,0,0,0,.23Z" fill="#404041"/><path d="M5.76,13.13l-.16,0A.28.28,0,0,1,5.69,13a.39.39,0,0,1,.2-.05.44.44,0,0,1,.19,0,.19.19,0,0,1,.08.07.32.32,0,0,1,0,.16v.22a.45.45,0,0,0,0,.13l0,.09H6a.43.43,0,0,1,0,0v0a.21.21,0,0,1-.1.06.2.2,0,0,1-.11,0,.24.24,0,0,1-.17-.06.2.2,0,0,1-.06-.15.17.17,0,0,1,0-.1.19.19,0,0,1,.08-.07.39.39,0,0,1,.14,0L6,13.16H6a.1.1,0,0,0,0-.08l-.1,0s-.06,0-.07,0A.1.1,0,0,0,5.76,13.13Zm.25.15-.12,0-.09,0a.07.07,0,0,0,0,.06.1.1,0,0,0,.1.1.14.14,0,0,0,.09,0,.13.13,0,0,0,0-.06s0-.05,0-.09Z" fill="#404041"/><path d="M7,13.61H6.79v-.35a.45.45,0,0,0,0-.14.1.1,0,0,0,0,0,.07.07,0,0,0-.06,0l-.08,0a.13.13,0,0,0-.06.07.62.62,0,0,0,0,.16v.31H6.35v-.69h.17V13a.26.26,0,0,1,.22-.12l.11,0a.17.17,0,0,1,.08.06.15.15,0,0,1,0,.07.41.41,0,0,1,0,.12Z" fill="#404041"/><path d="M7.08,13.42l.18,0a.22.22,0,0,0,0,.08.15.15,0,0,0,.1,0,.13.13,0,0,0,.1,0,.05.05,0,0,0,0-.05v0l-.06,0a.8.8,0,0,1-.28-.09.15.15,0,0,1-.08-.15A.18.18,0,0,1,7.18,13a.31.31,0,0,1,.21-.06A.3.3,0,0,1,7.6,13a.22.22,0,0,1,.1.13l-.17,0,0-.06L7.4,13l-.11,0a.05.05,0,0,0,0,0l0,0,.17,0a.43.43,0,0,1,.2.08.17.17,0,0,1,.06.14.23.23,0,0,1-.08.16.37.37,0,0,1-.23.07.36.36,0,0,1-.22-.06A.27.27,0,0,1,7.08,13.42Z" fill="#404041"/><path d="M7.86,12.92H8V13a.2.2,0,0,1,.09-.09l.12,0a.29.29,0,0,1,.21.09.42.42,0,0,1,.08.26.41.41,0,0,1-.08.27.3.3,0,0,1-.21.1.19.19,0,0,1-.1,0,.46.46,0,0,1-.1-.07v.34H7.86Zm.18.34a.29.29,0,0,0,.05.17.14.14,0,0,0,.11.05.1.1,0,0,0,.1-.05.23.23,0,0,0,0-.16.22.22,0,0,0,0-.16.12.12,0,0,0-.1-.06.17.17,0,0,0-.12,0A.34.34,0,0,0,8,13.26Z" fill="#404041"/><path d="M8.62,13.26a.39.39,0,0,1,0-.18A.4.4,0,0,1,8.79,13a.37.37,0,0,1,.18,0,.34.34,0,0,1,.26.1.38.38,0,0,1,.1.26.36.36,0,0,1-.1.25.35.35,0,0,1-.26.11.41.41,0,0,1-.18-.05.3.3,0,0,1-.13-.12A.42.42,0,0,1,8.62,13.26Zm.19,0a.21.21,0,0,0,0,.15.17.17,0,0,0,.12.06.14.14,0,0,0,.12-.06.21.21,0,0,0,.05-.15.25.25,0,0,0-.05-.16.17.17,0,0,0-.12,0,.21.21,0,0,0-.12,0A.25.25,0,0,0,8.81,13.27Z" fill="#404041"/><path d="M9.63,13.61H9.45v-.69h.17V13l.07-.09.08,0,.12,0-.05.16-.09,0-.06,0a.15.15,0,0,0,0,.08.62.62,0,0,0,0,.23Z" fill="#404041"/><path d="M10.27,12.92v.15h-.12v.37l0,0h0l.07,0,0,.14a.33.33,0,0,1-.15,0l-.08,0a.09.09,0,0,1-.06,0l0-.07v-.43H9.88v-.15H10v-.13l.18-.11v.24Z" fill="#404041"/><path d="M10.78,13.39l.18,0a.25.25,0,0,1-.11.15.29.29,0,0,1-.19.06.31.31,0,0,1-.26-.12.36.36,0,0,1-.07-.24.36.36,0,0,1,.09-.26.29.29,0,0,1,.23-.1.3.3,0,0,1,.24.1.41.41,0,0,1,.08.31h-.45a.18.18,0,0,0,0,.13.14.14,0,0,0,.11,0l.07,0A.15.15,0,0,0,10.78,13.39Zm0-.18a.16.16,0,0,0,0-.12.11.11,0,0,0-.09,0,.13.13,0,0,0-.1,0,.16.16,0,0,0,0,.12Z" fill="#404041"/></svg>