<svg id="ec9c2221-596e-407d-9725-97e69846d959" data-name="Layer 1" xmlns="http://www.w3.org/2000/svg" viewBox="0 0 17 14.29"><g id="e9dda2d2-8117-4ab4-8c1b-52e9694d876c" data-name="Logo fontur"><path d="M.08,7.26c0,.33-.16.81,0,1.08.08-.21.15-.46.23-.71A3.94,3.94,0,0,1,.71,6.21,10.08,10.08,0,0,1,1.6,4.63l.75-.85,0,0,0,0,.46-.41a6.63,6.63,0,0,1,1-.73,7,7,0,0,1,2.23-1l.68-.19a6.11,6.11,0,0,1,.86-.08,8,8,0,0,1,3.92.45l.95.45a7.87,7.87,0,0,1,2.76,2.2,8.4,8.4,0,0,1,1.17,2l.24.69c.07.21.06.21,0,.31a7.23,7.23,0,0,1,.29.86l0-.88a2.64,2.64,0,0,1-.13-.52,9.4,9.4,0,0,0-1.18-2.59l-.27-.35a9.14,9.14,0,0,0-.59-.7c-.11-.11-.2-.18-.32-.31a4.09,4.09,0,0,0-.33-.28,8.74,8.74,0,0,0-5.54-2,8.41,8.41,0,0,0-4.08,1l.1.08s0,0,0,0,0-.05,0,0L4.77,2c-.16,0-.16,0-.2,0s0,0-.12-.07c-.07-.42.08.1,0-.35a5.11,5.11,0,0,0-.83.47c-.2.15-.49.35-.71.53A7.51,7.51,0,0,0,1.71,3.86a9,9,0,0,0-1,1.56C.62,5.7.49,6,.39,6.31a5.53,5.53,0,0,1-.31,1m6.57-6.2c.16-.09.08,0,.11-.2.18.08.07.08.26,0a.33.33,0,0,0,0,.29l-.22.15ZM9,.86c.18-.07.09,0,.2-.13L9.33,1c-.19.13,0,0-.14.23-.08-.1,0-.05-.11-.09s-.05,0-.07,0ZM8,1.13s0,0,0,0C7.86,1,8,1.07,7.79,1c.1-.12.09-.07.1-.28.13.05.09.06.23,0,0,.3,0,.12.08.3Zm2.41.19c-.18-.08-.1-.1-.26,0A.45.45,0,0,0,10.06,1a.38.38,0,0,0,.21-.14c.14.2,0,.09.17.14C10.37,1.17,10.36,1.12,10.38,1.32Zm.78.2c0-.18.1-.11,0-.29l.26,0c0,.14,0,.1.12.18l-.1.08-.07.09s0,0,0,0S11.41,1.54,11.16,1.52Zm-5.58.07c0-.23,0-.16,0-.32,0,0,0-.08.07-.1s.06.07.24.11c-.08.13-.08.09-.08.29C5.7,1.53,5.72,1.55,5.58,1.59ZM12.51,2l-.06.09-.19-.23.1-.15s0,0,0,0,.31-.05.2.23Z" fill="#191938" fill-rule="evenodd"/><path d="M.08,7.26a5.53,5.53,0,0,0,.31-1c.1-.31.23-.61.35-.89a9,9,0,0,1,1-1.56A7.51,7.51,0,0,1,3,2.59c.22-.18.51-.38.71-.53a5.11,5.11,0,0,1,.83-.47c0,.45-.12-.07,0,.35.1.07,0,.05.12.07s0,0,.2,0l-.06-.29c-.06-.09,0,0,0,0s0,0,0,0l-.1-.08A8.41,8.41,0,0,1,8.62.62a8.74,8.74,0,0,1,5.54,2,4.09,4.09,0,0,1,.33.28c.12.13.21.2.32.31a9.14,9.14,0,0,1,.59.7l.27.35a9.4,9.4,0,0,1,1.18,2.59A2.64,2.64,0,0,0,17,7.4a7.34,7.34,0,0,0-2.21-4.64A9.25,9.25,0,0,0,5.21.51a8.23,8.23,0,0,0-1.92,1L1.92,2.83l0,0A7.67,7.67,0,0,0,.08,7.26" fill="#e6c518" fill-rule="evenodd"/><path d="M.27,7.63.79,6.45a8.52,8.52,0,0,1,1.88-2.4A11.91,11.91,0,0,1,4.77,2.7a8.9,8.9,0,0,1,3.59-.77,9,9,0,0,1,4.26.92,9.88,9.88,0,0,1,2.45,1.88,9.29,9.29,0,0,1,1.64,2.69c.06-.1.07-.1,0-.31l-.24-.69a8.4,8.4,0,0,0-1.17-2,7.87,7.87,0,0,0-2.76-2.2l-.95-.45a8,8,0,0,0-3.92-.45,6.11,6.11,0,0,0-.86.08l-.68.19a7,7,0,0,0-2.23,1,6.63,6.63,0,0,0-1,.73l-.46.41,0,0,0,0-.75.85A10.08,10.08,0,0,0,.71,6.21,3.94,3.94,0,0,0,.27,7.63" fill="#a71716" fill-rule="evenodd"/><path d="M3.05,10.11l.07,0h0l.61,0c-.22-.37-.15.1-.41-.21h0c.24,0-.11,0,.3-.16.2-.06.39-.08.57-.15C5.42,9.1,5.7,8.21,6.91,7.79c.16,0,.69-.23,1-.29,2.88-.58,4.74,1.26,7.81,1A8.23,8.23,0,0,1,16,9.59c-.4,0-1,0-1.3,0a5.72,5.72,0,0,1-.92,0l-4,.25c1.54,0,3.86-.39,5.07.08a3.91,3.91,0,0,1,.58.29l.53.35c0,.22,0,.11.1.31l.08.28s0,0,0,0l.05-.16a1.9,1.9,0,0,0,.1-.88,3.54,3.54,0,0,0-.31-.77,6.05,6.05,0,0,0-.23-.91,6.25,6.25,0,0,0-1.07,0c-.25,0-.75,0-.91-.19-.44,0-.33-.06-.61-.11L12.76,8c-.39-.17-1.81-.35-1.52-.74l-.17,0c-.13-.25-.09,0-.24-.2s-.05-.13-.13-.23,0-.1-.07-.1l0,.7a6.36,6.36,0,0,1-.8-.13,4.63,4.63,0,0,0-.74-.07c-.28,0-.44,0-.71,0l-.17-.38-.44,0-.07.23,0,.25a1.36,1.36,0,0,1-.4.11c-.52.12-.79.39-1,.32H6.35c0,.21-.07.2-.37.35A1.18,1.18,0,0,1,5.9,8c-.05-.08,0,0-.06-.15a2.27,2.27,0,0,0-.06-.3.61.61,0,0,0-.44,0,1.52,1.52,0,0,1-.43,0c.12.18,0,.12.07.23s.13.18.17.24L5,8l0,.53L4.21,8.3V7.89C4.11,7.75,4,7.66,4,7.42s.13-.28.24-.3l-.13,0s0,0,0,0c.07-.19.09-.12.18-.28.2.07.32.19.44.12-.13-.23-1.07-.26-1.32-.19a.41.41,0,0,1,0,.51c.15.21.19-.1.11.26,0,0-.09.25-.11.29-.54,0-.7,0-.81.35a1,1,0,0,1-.12.23,2,2,0,0,0-.1,1.29,2.56,2.56,0,0,0-1.3.71,3.89,3.89,0,0,0-.77,1.2c.16-.08.84-.74,1.14-.92a3,3,0,0,1,1.55-.52m4.86-3.2.31,0,.06.31-.42.07ZM4.37,8.56c0,.25-.06.32,0,.56l.19,0c-.29-.32.07-.7.41-.39l-.25.09c0,.29,0,.07.07.24a2.35,2.35,0,0,1-1,.43c0-.4.15.15.15-.55a1.87,1.87,0,0,0-.07-.6c-.09-.23-.18-.25-.15-.46a1.36,1.36,0,0,1,.17-.49s0,0,0,.11l0,.37c.18.75-.07,1.16.27,1.31.08-.11,0,.1.08-.19A2.94,2.94,0,0,1,4.37,8.56Zm-.8-.06a.91.91,0,0,1,0,.85c-.13.28-.47.21-.8.23,0-.17-.14-.2-.15-.46a.76.76,0,0,1,.09-.48c.11-.23.32-.54.68-.35l.17,0C3.54,8.39,3.53,8.38,3.57,8.5Zm1.7.25c0-.35,0-.49.25-.61C5.75,8.37,5.73,8.42,5.27,8.75ZM16,10.56c-.05-.29-.52-.37-.86-.67h.11c.34-.07,0,0,.23-.1l.72.17a1.13,1.13,0,0,1,0,.9C16.11,10.65,16.21,10.65,16,10.56Z" fill="#251a19" fill-rule="evenodd"/><path d="M8.87,9.53c.5,0,2.66-.21,3-.31.6-.17.69,0,1-.4l0-.07,0,0a.91.91,0,0,0-.08-.17c-.21-.37-.38-.24-.7-.36A.57.57,0,0,0,12,8.12c-.26-.07-.21,0-.48-.09l0,0-1.41-.35c-.09,0,0-.15-.35-.07l-.21.14,0,0c-.13.17-.28.77-.4,1a1.5,1.5,0,0,0-.2.77" fill="#eaecf0" fill-rule="evenodd"/><path d="M15.79,13.26c0-.17-.4-1-.4-1.1,0-.22,0-.07,0-.13s.16-.09.27-.25a1.06,1.06,0,0,0,.08-.65c-.14-.84-1.57-.61-2.28-.62v2.76h.8a3,3,0,0,1,0-1c.22,0,.2,0,.28.14s.05.19.1.32a2.53,2.53,0,0,0,.24.55ZM14.3,11.14c.25-.05.57-.09.64.17s-.07.25-.13.34l-.51,0Z" fill-rule="evenodd"/><path d="M7.22,11.73l0,0a16.46,16.46,0,0,1,.85,1.5h.69l0-2.74H8.1v1.25c-.17-.1,0,0-.09-.09l-.33-.55c-.13-.22-.25-.41-.36-.61H6.58l0,2.75h.67Z" fill-rule="evenodd"/><path d="M3.82,12.11c.14,1.72,2.52,1.7,2.42-.41a1.21,1.21,0,0,0-1.42-1.22c-.76.16-1.06.79-1,1.63m1.55.06c-.27,1.08-.8.42-.7-.49C4.8,10.59,5.61,11.22,5.37,12.17Z" fill-rule="evenodd"/><path d="M6.91,7.79C5.7,8.21,5.42,9.1,4.27,9.54c-.18.07-.37.09-.57.15-.41.12-.06.18-.3.16h0c.26.31.19-.16.41.21l-.61,0h0l-.07,0c.78.05,2.92,0,3.86-.07.29,0,.53-.08.78-.07s1.33.11,1.6-.17l-1.67,0c.11-.07,0,0,.09,0-.12,0-.15-.06-.25-.08l-.33-.12c1.49,0,1.51.05,1.71-.61,0-.22.07-.07-.08-.19,0,.16-.15.39-.18.57a14.49,14.49,0,0,1-3.25.1c-.1-.16.09-.23.22-.34l1.29-.83a10.41,10.41,0,0,1,1-.37A8.79,8.79,0,0,1,9.15,7.7c0,.21-.22.44-.16.68a2,2,0,0,0,.3-.79A6.37,6.37,0,0,0,7.16,8c-.09,0,0,0-.12,0s0,0-.13-.14" fill="#848484" fill-rule="evenodd"/><path d="M11,10.52c0,.6,0,1.37,0,2s.48.88,1.07.85,1-.29,1-.89,0-1.29,0-1.92h-.61c0,.37,0,.75,0,1.13s.08.67-.15,1l-.44,0a10,10,0,0,1-.1-2.08Z" fill-rule="evenodd"/><path d="M8.84,8.91l.06-.08A.46.46,0,0,0,9,8.38c-.06-.24.12-.47.16-.68a8.79,8.79,0,0,0-1.28.15,10.41,10.41,0,0,0-1,.37l-1.29.83c-.13.11-.32.18-.22.34a14.49,14.49,0,0,0,3.25-.1c0-.18.14-.41.18-.57.15.12.05,0,.08.19" fill="#f1f1f3" fill-rule="evenodd"/><path d="M10.64,6.23v.1h.24a4.61,4.61,0,0,0,0-1.05c-.13-.6,0-.77,0-.75h1.37l0,1.89a2.82,2.82,0,0,0,.41,0c.2,0,.33,0,.46-.1l-.75,0V4.54l1.16,0,.27,0,.1,1.81,0,.3,0,0s-.05,0-.06,0c-.21.12-.2.09-.26.25h.31c-.11.27-.15.12-.35.35l.23,0c0-.11,0-.1.13-.1l.1.35c0-.5,0-1.08,0-1.58l0-1.46,0,0c.25.11,0-.11,0,.4a.72.72,0,0,0,.13.47c.44-.13.11-.58,0-1.12-.27,0-.29.16-.35-.11s.06-.24-.17-.42a8.62,8.62,0,0,0-2.73,0c-.19.19-.12.32-.19.59l-.29,0a2.4,2.4,0,0,0-.17.87c.05.2,0,.13.18.2.26-.27.08-.72.07-.89.31,0,.11.1.13.72,0,.39,0,.66,0,1m2.83-1.91a.29.29,0,0,1,0,.16H12.28a4.5,4.5,0,0,1-1.17,0c0-.34,0-.3.39-.3a17.16,17.16,0,0,1,1.92,0Z" fill="#712a2e" fill-rule="evenodd"/><path d="M10.63,6.73c.09,0,0,0,.07.1l.34,0c.08.13,0,.12.16.17h0s0,0,0,0l0,.22c-.29.39,1.13.57,1.52.74l.47.13c.28,0,.17.14.61.11.28-.38.1-.24.15-.71l-.1-.35c-.18,0-.09,0-.13.1l-.23,0c-.17-.07,0,0-.1-.08l0-.08.19-.2c.06-.16,0-.13.26-.25,0,0,.06,0,.06,0l0,0,0-.3-.3,0-.49,0c-.13.12-.26.11-.46.1a2.82,2.82,0,0,1-.41,0,2.24,2.24,0,0,0-.83-.07l-.53,0h-.24v.4Zm1.09.16a4.74,4.74,0,0,0,.61.09c.5,0,.91-.4.85.23a1.47,1.47,0,0,1-1.74,0C11.42,6.84,11.43,6.84,11.72,6.89Z" fill="#871616" fill-rule="evenodd"/><polygon points="2.62 11.19 3.71 11.18 3.7 10.52 1.81 10.53 1.81 13.27 2.63 13.25 2.62 12.27 3.45 12.26 3.45 11.65 2.63 11.64 2.62 11.19" fill-rule="evenodd"/><path d="M6.37,4.82l0,.3H9.7c.13.13,0,.3,0,.5s0,.13.14.26c0-.13,0-.29,0-.41a1,1,0,0,1,.05-.21c.17.21-.2-.09.05,0,0,.76,0,.56-.11.75s0-.11-.09.13c.34,0,.37.09.36-.73,0-.6-.23-.56-.38-.61-.11-.62.06-.55-1.74-.53a4.54,4.54,0,0,0-1.53.13s-.2,0-.1.38" fill="#f1d370" fill-rule="evenodd"/><polygon points="8.98 11.19 9.51 11.19 9.5 13.26 10.28 13.26 10.29 11.2 10.79 11.19 10.79 10.51 8.98 10.51 8.98 10.72 8.98 11.19" fill-rule="evenodd"/><path d="M7.71,5.19H8.1v.85a1.2,1.2,0,0,0,0-.46c0-.43,0-.35-.16-.44V6.33c.31.27,0-.1.18.17.09,0,1.26,0,1.59,0l0-1.41H7.15a1.61,1.61,0,0,0,.56.08" fill="#484647" fill-rule="evenodd"/><path d="M13.1,6.34l.49,0c0-.36,0-.71,0-1.07a4,4,0,0,1,0-.49c0-.25.12-.08-.07-.24l-1.16,0V6.36Z" fill="#f8f8f9" fill-rule="evenodd"/><path d="M11.4,6.35a2.24,2.24,0,0,1,.83.07l0-1.89H11.2c-.11.1.13,0-.14.1l.22,0a9.25,9.25,0,0,0,0,1.59s0,0,0,0l.07.06" fill="#f8f8f9" fill-rule="evenodd"/><path d="M7.52,7.06c.13.1,0,.08.21.05l.07-.23.44,0,.17.38c.27,0,.43,0,.71,0-.09-.15,0,0,0-.08l.57,0,0-.65c-.33,0-1.5,0-1.59,0l-.7,0-1.06,0c.2.14.62,0,.94.09l.07.2s0,0-.06,0l-.41,0s0,0,0,0H7L7.24,7c.22.06.16,0,.28.1" fill="#d7c92a" fill-rule="evenodd"/><path d="M7.43,6.47l.7,0c-.17-.27.13.1-.18-.17V5.15c.11.09.14,0,.16.44a1.2,1.2,0,0,1,0,.46V5.2H7v.52a1.84,1.84,0,0,1,0,.66Z" fill="#473a48" fill-rule="evenodd"/><path d="M6.35,6.5h0l1.06,0L7,6.38a1.84,1.84,0,0,0,0-.66V5.2h.7a1.61,1.61,0,0,1-.56-.08H6.39a5.75,5.75,0,0,0,0,1.38" fill="#251a19" fill-rule="evenodd"/><path d="M4.9,13.63l-.15.19c-.09-.09-.08.15-.07-.14-.15,0,0,0-.11.06-.27.17-.1-.07-.29.17-.1-.17,0-.11-.21-.13-.17.26,0,0-.05.17v-.1l-.13-.15,0,0-.14.14-.45-.08c-.09.12,0,.06-.06.24l-.1-.25,0,0-.1,0h0l0-.06v0c0-.11,0,0-.09-.08s-.05,0-.12,0v.52c.14-.07,0-.14.21-.19a.87.87,0,0,0,.11.18h1c.23,0,0-.08.28,0s.53-.05.76,0c0,0,0-.12,0-.13a.15.15,0,0,1,0-.1c0,.24,0,.18.11.25.05-.5,0-.35-.36-.35Z" fill="#251a19" fill-rule="evenodd"/><path d="M11.11,4.42a4.5,4.5,0,0,0,1.17,0h1.19a.29.29,0,0,0,0-.16l-.05-.18a17.16,17.16,0,0,0-1.92,0c-.39,0-.36,0-.39.3" fill="#fbf2f1" fill-rule="evenodd"/><path d="M6.4,7.79c.19.07.46-.2,1-.32a1.36,1.36,0,0,0,.4-.11l0-.25c-.17,0-.08,0-.21-.05A5.93,5.93,0,0,1,6.93,7a1.08,1.08,0,0,1-.48-.18,2.78,2.78,0,0,0,0,1" fill="#f1d370" fill-rule="evenodd"/><path d="M10.17,13.67l.08.11c.14.24,0,.24.15.39l0-.39c.11.14,0,.2.09.38.21-.11-.09-.11.22-.31-.12.5.08.2.35.32l0-.23c0,.19,0,.1.07.22h.23l0,0c.23-.1-.12.16,0-.05.06.14,0,.28.07.17l0,0c.36-.35.18-.14.54-.18.17,0,.08.18.14,0s0,0,0,0c0-.21,0-.15.11-.27.07.13,0,.12.11.28.06-.07,0,0,.05-.1s0-.05,0-.1,0-.16,0-.25c-.19,0-.08,0-.27.08s-.13,0-.35,0-.11,0-.36,0l-.1.15c0-.15.11.05-.06-.17-.18.06-.21,0-.43,0l-.09.3,0-.28c-.21-.08-.07.08-.34-.07-.09-.05,0-.12-.38-.08" fill="#12110e" fill-rule="evenodd"/><path d="M10.87,6.32l.53,0-.07-.06s0,0,0,0a9.25,9.25,0,0,1,0-1.59l-.22,0c.27-.06,0,0,.14-.1h-.32s-.14.15,0,.75a4.61,4.61,0,0,1,0,1.05" fill="#cbcaca" fill-rule="evenodd"/><path d="M7.53,13.65c-.12,0-.09,0-.2,0l-.15,0v.49c.17-.05,0,0,.13-.23l.09.24c.32-.09,0,0,.29,0h.06l.09,0c.08,0,0,0,.13,0s.18,0,.32,0h0l.37,0h.45c0-.1.09-.29-.05-.36s-.16.14-.18.17l-.15-.18c-.14,0,0,0-.13.05s-.05.08-.06.06,0,0,0,0,0-.1-.11-.14-.14.07-.17.08l-.07-.23c-.3.18.25-.18-.1.08s-.28.1-.47,0Z" fill="#171616" fill-rule="evenodd"/><path d="M3.82,9.47a2.35,2.35,0,0,0,1-.43c-.08-.17-.08.05-.07-.24L5,8.71c-.34-.31-.7.07-.41.39l-.19,0c-.09-.24,0-.31,0-.56a2.94,2.94,0,0,0,0,.41c-.05.29,0,.08-.08.19C3.94,9,4.19,8.6,4,7.85l0-.37c0-.12,0-.06,0-.11a1.36,1.36,0,0,0-.17.49c0,.21.06.23.15.46a1.87,1.87,0,0,1,.07.6c0,.7-.13.15-.15.55" fill="#e6e5e7" fill-rule="evenodd"/><path d="M4.2,7.89A1.49,1.49,0,0,0,5,8l.18,0c0-.06-.11-.07-.17-.24s0,0-.07-.23-.12-.13-.24-.24-.11-.07-.39-.16c-.11,0-.2.11-.24.3s.07.33.16.47" fill="#094928" fill-rule="evenodd"/><path d="M14.66,14.12c.08,0,0,.08.22,0,.1-.27,0-.51-.28-.24l-.11-.08c-.17-.06-.16,0-.4,0L14,14l-.26-.31,0,0c-.22.2-.18.11-.4,0l0,.39c-.19-.23,0-.26-.18-.37-.08.2-.07.4.11.5.18-.05.14-.06.18-.23,0,0,0,0,0,.05l.13.18.1-.28.08.27c.26,0,.07,0,.2,0l.14,0a3.31,3.31,0,0,0,.34,0h.06l0,0c.19-.08.1,0,.17,0" fill="#171616" fill-rule="evenodd"/><path d="M3.57,8.5c-.22.46.16.83-.48,1l-.22-.2a.81.81,0,0,1,.07-.7c.35-.09.39,0,.46-.29-.36-.19-.57.12-.68.35a.76.76,0,0,0-.09.48c0,.26.1.29.15.46.33,0,.67.05.8-.23a.91.91,0,0,0,0-.85" fill="#fbfbfc" fill-rule="evenodd"/><path d="M5.67,13.76c0-.06,0,0,.08-.11l-.27,0,0,.47c.09,0,0-.1.17-.18s.1.1.17.2.15-.06.2-.06l.26.06c.24-.11.09,0,.33,0l.14,0c.11,0,0,.07.13,0s.14-.4,0-.38-.08.05-.12.1l-.1-.23-.25.23c-.12-.08-.25-.21-.34,0-.09-.14,0,0-.13-.14-.2.08-.13.14-.31.05Z" fill="#171616" fill-rule="evenodd"/><path d="M3.4,8.29c-.07.33-.11.2-.46.29a.81.81,0,0,0-.07.7l.22.2c.64-.15.26-.52.48-1,0-.12,0-.11,0-.25Zm-.25.91c-.16-.25,0-.33.22-.33C3.35,9.1,3.39,9.2,3.15,9.2Z" fill="#929292" fill-rule="evenodd"/><path d="M12.28,7.06c-.33,0-.59-.11-.77-.1,0,.26,0,.23.19.32.56.24,1.34.08,1.41-.12V7a4.8,4.8,0,0,1-.82.11" fill="#871616" fill-rule="evenodd"/><path d="M16,10.56c.21.09.11.09.2.28a1.13,1.13,0,0,0,0-.9l-.72-.17c-.21.07.11,0-.23.1h-.11c.34.3.81.38.86.67" fill="#fcfaf2" fill-rule="evenodd"/><path d="M13.52,4.52c.19.16.1,0,.07.24a4,4,0,0,0,0,.49c0,.36,0,.71,0,1.07l.3,0-.1-1.81Z" fill="#a4a4a3" fill-rule="evenodd"/><path d="M6.39,5.12l0-.3c-.46.16-.44.34-.43.95,0,.13,0,.34.15.4s.22-.16.21-.4a3.15,3.15,0,0,0,0-.62Z" fill="#6b6766" fill-rule="evenodd"/><path d="M6.35,7.79H6.4a2.78,2.78,0,0,1,0-1A1.08,1.08,0,0,0,6.93,7a5.93,5.93,0,0,0,.59.07c-.12-.12-.06,0-.28-.1L7,6.89H6.94s0,0,0,0l.41,0s0,0,.06,0l-.07-.2c-.32-.06-.74,0-.94-.09h0Z" fill="#d9681c" fill-rule="evenodd"/><path d="M11.44,7.2a1.47,1.47,0,0,0,1.74,0c.06-.63-.35-.23-.85-.23a4.74,4.74,0,0,1-.61-.09c-.29,0-.3,0-.28.31M11.51,7c.18,0,.44.1.77.1A4.8,4.8,0,0,0,13.1,7v.21c-.07.2-.85.36-1.41.12C11.49,7.19,11.53,7.22,11.51,7Z" fill="#edd1d1" fill-rule="evenodd"/><path d="M5,8a1.49,1.49,0,0,1-.77-.07V8.3l.73.19Z" fill="#f8f8f9" fill-rule="evenodd"/><path d="M10.06,14.17c0-.37,0-.25-.05-.39l-.19.08-.07-.21-.29.4c.3.24.18,0,.44.08a.28.28,0,0,0,.16,0" fill="#12110e" fill-rule="evenodd"/><path d="M5.27,8.75c.46-.33.48-.38.25-.61-.22.12-.29.26-.25.61" fill="#fff" fill-rule="evenodd"/><polygon points="7.86 7.33 8.28 7.26 8.22 6.95 7.91 6.91 7.86 7.33" fill="#f8f8f9" fill-rule="evenodd"/><path d="M11.24,7.28l0-.22s0,0,0,0h0c-.12,0-.08,0-.16-.17l-.34,0c.08.1.08.17.13.23s.11,0,.24.2Z" fill="#9b9a9a" fill-rule="evenodd"/><path d="M6.65,1.06l.16.26L7,1.17A.33.33,0,0,1,7,.88c-.19.06-.08.06-.26,0,0,.24,0,.11-.11.2" fill="#f8f8f9" fill-rule="evenodd"/><path d="M13.53,7.26c.2-.23.24-.08.35-.35h-.31l-.19.2,0,.08c.08.1-.07,0,.1.08" fill="#c2c2c2" fill-rule="evenodd"/><path d="M10.06,1a.45.45,0,0,1,.06.31c.16-.09.08-.07.26,0,0-.2,0-.15.06-.32-.18-.05,0,.06-.17-.14a.38.38,0,0,1-.21.14" fill="#f8f8f9" fill-rule="evenodd"/><path d="M12.85,14.17s.21-.27,0-.4c-.18.09-.29.18-.1.34s.05,0,.15.06" fill="#171616" fill-rule="evenodd"/><path d="M7.79,1c.17.06.07,0,.14.14,0,0,0,0,0,0l.23-.08c-.11-.18-.11,0-.08-.3-.14,0-.1,0-.23,0,0,.21,0,.16-.1.28" fill="#f8f8f9" fill-rule="evenodd"/><path d="M5.58,1.59c.14,0,.12-.06.26,0,0-.2,0-.16.08-.29-.18,0-.09,0-.24-.11s-.06.1-.07.1c-.06.16,0,.09,0,.32" fill="#f8f8f9" fill-rule="evenodd"/><path d="M9,.86l0,.23s0,0,.07,0,0,0,.11.09c.12-.2,0-.1.14-.23L9.18.73c-.11.15,0,.06-.2.13" fill="#f4f4f6" fill-rule="evenodd"/><path d="M12.26,1.87l.19.23L12.51,2l.07-.09c.11-.28-.2-.23-.2-.23s0,0,0,0Z" fill="#f8f8f9" fill-rule="evenodd"/><path d="M11.16,1.52c.25,0,.06,0,.19.07s0,0,0,0l.07-.09.1-.08c-.1-.08-.09,0-.12-.18l-.26,0c.09.18,0,.11,0,.29" fill="#f8f8f9" fill-rule="evenodd"/><path d="M3.15,9.2c.24,0,.2-.1.22-.33-.26,0-.38.08-.22.33" fill="#12110e" fill-rule="evenodd"/></g></svg>