<svg id="a9b73d34-40d9-4e7e-b2c3-66d2cb755dfc" data-name="Layer 1" xmlns="http://www.w3.org/2000/svg" viewBox="0 0 24 13.96"><path d="M12.41,12.52h0Z" fill="none"/><path d="M16.37,13c-2.68-.26-3.85-.5-4-.52h0l-.18,0A14.21,14.21,0,0,1,9.52,12h0a17.13,17.13,0,0,0,6.37,1.52c1,.11,2.21.34,3.15.49.21-.08.62-.25,1.23-.43C19.63,13.42,18.34,13.22,16.37,13Z" fill="#c31718"/><path d="M17.1,12.66c-2.09,0-3.4,0-4.69-.14h0c.11,0,1.28.26,4,.52,2,.18,3.26.38,3.9.49l.55-.16c.42-.11.91-.23,1.46-.33A29.36,29.36,0,0,0,17.1,12.66Z" fill="#29529f"/><path d="M21.78,12.29c-4.4-.55-7.52.38-12.26-.34h0a14.21,14.21,0,0,0,2.69.54l.18,0h0c1.29.15,2.6.12,4.69.14a29.36,29.36,0,0,1,5.18.38l.1,0c.35-.06.73-.12,1.13-.17l.49,0A11.77,11.77,0,0,0,21.78,12.29Z" fill="#fdc700"/><polygon points="15.9 12.76 15.92 12.8 15.96 12.82 15.93 12.85 15.93 12.9 15.89 12.87 15.84 12.89 15.85 12.84 15.82 12.8 15.87 12.8 15.9 12.76" fill="#fff"/><polygon points="16.45 12.77 16.48 12.82 16.53 12.83 16.49 12.87 16.49 12.93 16.44 12.9 16.39 12.92 16.4 12.87 16.36 12.82 16.42 12.82 16.45 12.77" fill="#fff"/><polygon points="17.01 12.77 17.03 12.83 17.09 12.84 17.05 12.88 17.05 12.94 17 12.91 16.94 12.93 16.96 12.87 16.92 12.83 16.98 12.82 17.01 12.77" fill="#fff"/><polygon points="17.57 12.8 17.59 12.86 17.66 12.87 17.61 12.91 17.61 12.98 17.55 12.95 17.49 12.97 17.51 12.91 17.47 12.86 17.53 12.85 17.57 12.8" fill="#fff"/><polygon points="18.12 12.84 18.15 12.9 18.21 12.92 18.16 12.96 18.17 13.03 18.11 12.99 18.05 13.02 18.07 12.95 18.02 12.9 18.09 12.9 18.12 12.84" fill="#fff"/><polygon points="18.68 12.88 18.7 12.94 18.77 12.96 18.72 13 18.72 13.06 18.67 13.03 18.61 13.05 18.62 12.99 18.58 12.94 18.65 12.94 18.68 12.88" fill="#fff"/><polygon points="19.24 12.93 19.26 12.99 19.33 13.01 19.27 13.05 19.28 13.12 19.23 13.08 19.16 13.11 19.18 13.04 19.14 12.99 19.2 12.99 19.24 12.93" fill="#fff"/><polygon points="19.79 13.04 19.82 13.1 19.88 13.12 19.83 13.16 19.84 13.22 19.78 13.19 19.72 13.21 19.74 13.15 19.69 13.1 19.76 13.1 19.79 13.04" fill="#fff"/><path d="M5.69,3.75a.27.27,0,1,0,0-.53.27.27,0,0,0,0,.53" fill="#9c9c9c"/><path d="M5.81,3.79H5.58A.22.22,0,0,0,5.36,4v.51a.24.24,0,0,0,.12.21V5a.2.2,0,0,0,.21.2h0A.21.21,0,0,0,5.91,5v-.3A.24.24,0,0,0,6,4.53V4a.22.22,0,0,0-.22-.23" fill="#9c9c9c"/><path d="M8.24,3.75a.27.27,0,1,0,0-.53.27.27,0,0,0,0,.53" fill="#9c9c9c"/><path d="M8.36,3.79H8.13A.22.22,0,0,0,7.91,4v.51A.24.24,0,0,0,8,4.74V5a.2.2,0,0,0,.21.2h0A.21.21,0,0,0,8.46,5v-.3a.24.24,0,0,0,.12-.21V4a.22.22,0,0,0-.22-.23" fill="#9c9c9c"/><path d="M4.08,4.19,4,4.44l0,.13v0L3.9,4.44l-.09-.25-.35-.88H2.81V5.22h.44v-1a2.62,2.62,0,0,0,0-.27h0l.09.26.43,1h.38l.42-1a1.26,1.26,0,0,0,.09-.26h0V5.22h.44V3.31H4.42Z" fill="#9c9c9c"/><path d="M7.51,4.36A1,1,0,0,0,7,4.26a1.1,1.1,0,0,1-.32,0s0,0,0-.13,0-.09,0-.11A.51.51,0,0,1,7,4a.52.52,0,0,1,.19,0s0,0,0,.12v.08h.37V4.06a.41.41,0,0,0-.14-.35A1,1,0,0,0,7,3.63a1,1,0,0,0-.51.09.44.44,0,0,0-.14.39c0,.19,0,.31.11.37a1.06,1.06,0,0,0,.49.11h.16c.11,0,.14,0,.15,0s0,0,0,.1,0,.14,0,.15-.06,0-.22,0a1.21,1.21,0,0,1-.28,0,.29.29,0,0,1,0-.16V4.66H6.3v.1a.44.44,0,0,0,.14.38.87.87,0,0,0,.51.1,1,1,0,0,0,.54-.1.51.51,0,0,0,.14-.42.43.43,0,0,0-.12-.36" fill="#9c9c9c"/><polygon points="9.95 3.51 9.87 3.23 9.37 3.4 9.42 3.6 9.95 3.51" fill="#9c9c9c"/><path d="M9.61,3.63c-.33,0-.53.05-.62.15a1.15,1.15,0,0,0-.14.7A1,1,0,0,0,9,5.09a.78.78,0,0,0,.57.15c.33,0,.53,0,.62-.15a1.12,1.12,0,0,0,.13-.68,1,1,0,0,0-.13-.63.78.78,0,0,0-.57-.15M9.29,4s0-.06.3-.06.29,0,.29,0a1,1,0,0,1,0,.42,1,1,0,0,1,0,.41s-.06.06-.29.06-.29,0-.3-.05a.82.82,0,0,1,0-.36c0-.37,0-.46,0-.47" fill="#9c9c9c"/><path d="M11.72,3.64V4.72l0-.06c0-.09-.09-.17-.12-.24l-.41-.78h-.57V5.22H11v-1a1.78,1.78,0,0,0,.11.21l.45.84h.56V3.64Z" fill="#9c9c9c"/><path d="M1.63,8.09s0,.05,0,.05H1a0,0,0,0,1,0-.05V5.26a0,0,0,0,0-.05,0H.05s0,0,0,0V4.62s0,0,.05,0H2.5s0,0,0,0v.54s0,0,0,0H1.68a0,0,0,0,0-.05,0Z" fill="#9c9c9c"/><path d="M4,5.54a0,0,0,0,1,0,0V6.1a0,0,0,0,1,0,.05H3.47a.11.11,0,0,0-.08,0l-.06.05a.25.25,0,0,0,0,.07.25.25,0,0,0,0,.07V8.09s0,.05,0,.05H2.66a0,0,0,0,1-.05-.05V6.19A.53.53,0,0,1,2.67,6a.6.6,0,0,1,.14-.21A.8.8,0,0,1,3,5.59a.7.7,0,0,1,.25,0Z" fill="#9c9c9c"/><path d="M4.48,5.54h1.4a.63.63,0,0,1,.32.08.77.77,0,0,1,.22.22,1.1,1.1,0,0,1,.12.29,1.63,1.63,0,0,1,0,.31V8.09s0,.05-.05.05H4.79a.35.35,0,0,1-.25-.09.74.74,0,0,1-.14-.22,1.21,1.21,0,0,1-.08-.25c0-.08,0-.15,0-.19a1.22,1.22,0,0,1,0-.26.79.79,0,0,1,.1-.27.68.68,0,0,1,.17-.21.41.41,0,0,1,.25-.08h.83a.33.33,0,0,0,.21-.06A.21.21,0,0,0,6,6.36a.27.27,0,0,0,0-.14.16.16,0,0,0-.13-.07H4.48s-.05,0-.05-.05V5.59S4.44,5.54,4.48,5.54Zm1.44,2s0,0,0,0V7.21s0,0,0,0H5a.14.14,0,0,0-.11,0,.21.21,0,0,0,0,.13.25.25,0,0,0,0,.15.17.17,0,0,0,.14.06Z" fill="#9c9c9c"/><path d="M7.64,8c0,.1,0,.16-.13.16H7.17a.1.1,0,0,1-.1-.06.32.32,0,0,1,0-.14V5.87a.32.32,0,0,1,.1-.23.38.38,0,0,1,.26-.1H8.53a.88.88,0,0,1,.33.07,1.05,1.05,0,0,1,.27.2.8.8,0,0,1,.18.27.71.71,0,0,1,.07.32V8.09s0,.05-.06.05h-.5a0,0,0,0,1-.05-.05V6.5a.4.4,0,0,0,0-.2.24.24,0,0,0-.1-.12.46.46,0,0,0-.16-.07H7.79a.14.14,0,0,0-.1,0,.1.1,0,0,0-.05.08Z" fill="#9c9c9c"/><path d="M9.87,7.53h1.37l.11,0a.17.17,0,0,0,.06-.06.11.11,0,0,0,0-.08V7.3a.28.28,0,0,0,0-.13s-.06-.07-.13-.07H10.5A.75.75,0,0,1,10.19,7,.42.42,0,0,1,10,6.88a.53.53,0,0,1-.11-.24,1,1,0,0,1,0-.31,1.09,1.09,0,0,1,.06-.4.44.44,0,0,1,.17-.24.68.68,0,0,1,.3-.12,2.76,2.76,0,0,1,.44,0h1.07s0,0,0,0V6.1s0,.05,0,.05h-1.3a.13.13,0,0,0-.12.06.27.27,0,0,0,0,.12.2.2,0,0,0,0,.13.11.11,0,0,0,.11.07h.73a1.11,1.11,0,0,1,.33,0,.59.59,0,0,1,.23.14A.67.67,0,0,1,12,7a1.78,1.78,0,0,1,.05.44.89.89,0,0,1,0,.19.75.75,0,0,1-.08.24.53.53,0,0,1-.16.2.45.45,0,0,1-.28.09H9.87a0,0,0,0,1,0-.05V7.58A0,0,0,0,1,9.87,7.53Z" fill="#9c9c9c"/><path d="M13.1,9s0,.05,0,.05h-.5s-.05,0-.05-.05V5.59s0,0,.05,0h1.23a1.07,1.07,0,0,1,.49.11.84.84,0,0,1,.31.28,1.25,1.25,0,0,1,.17.39,2.42,2.42,0,0,1,.05.47,1.87,1.87,0,0,1-.09.61,1.09,1.09,0,0,1-.23.41.9.9,0,0,1-.35.25,1.33,1.33,0,0,1-.45.08h-.53s-.05,0-.05,0Zm0-1.54a0,0,0,0,0,.05,0h.66a.3.3,0,0,0,.15,0,.49.49,0,0,0,.13-.12.83.83,0,0,0,.09-.16.38.38,0,0,0,0-.17V6.64a.38.38,0,0,0,0-.17.83.83,0,0,0-.09-.16A.69.69,0,0,0,14,6.2a.3.3,0,0,0-.15,0h-.66a0,0,0,0,0-.05,0Z" fill="#9c9c9c"/><path d="M17.61,7.13a1.72,1.72,0,0,1-.05.49.65.65,0,0,1-.16.31.53.53,0,0,1-.27.16,1.48,1.48,0,0,1-.39.05h-.89a.86.86,0,0,1-.38-.08.73.73,0,0,1-.24-.22.79.79,0,0,1-.12-.3,1.87,1.87,0,0,1,0-.34V6.32A.83.83,0,0,1,15.14,6a.72.72,0,0,1,.16-.25.79.79,0,0,1,.25-.15.8.8,0,0,1,.3-.06h1a.86.86,0,0,1,.27,0,.75.75,0,0,1,.24.15.84.84,0,0,1,.18.23.79.79,0,0,1,.06.32ZM17,6.4a.2.2,0,0,0,0-.11.39.39,0,0,0-.1-.08l-.14,0-.15,0h-.67l-.12,0a.3.3,0,0,0-.08.08.19.19,0,0,0,0,.12v.8a.43.43,0,0,0,0,.17.52.52,0,0,0,.11.1l.14,0h.6a.62.62,0,0,0,.31-.08A.25.25,0,0,0,17,7.23V6.4Z" fill="#9c9c9c"/><path d="M19.36,5.54s.05,0,.05,0V6.1s0,.05-.05.05h-.48a.11.11,0,0,0-.07,0,.18.18,0,0,0-.07.05.25.25,0,0,0,0,.07.2.2,0,0,0,0,.07V8.09a0,0,0,0,1-.05.05h-.56s0,0,0-.05V6.19a.69.69,0,0,1,0-.24.77.77,0,0,1,.14-.21.8.8,0,0,1,.21-.15.75.75,0,0,1,.26,0Z" fill="#9c9c9c"/><path d="M20.59,7.48a0,0,0,0,0,.05,0h.42s0,0,0,0v.51a0,0,0,0,1-.05.05h-.63A.43.43,0,0,1,20.11,8,.34.34,0,0,1,20,7.75V6.2a0,0,0,0,0,0,0h-.27a0,0,0,0,1-.05-.05V5.59a0,0,0,0,1,.05,0h.27s0,0,0,0V4.87s0,0,.05,0h.5s.05,0,.05,0v.62s0,0,.05,0h.41a0,0,0,0,1,.05,0V6.1a0,0,0,0,1-.05.05h-.41a0,0,0,0,0-.05,0Z" fill="#9c9c9c"/><path d="M22,7.18a.23.23,0,0,0,0,.14.35.35,0,0,0,.1.11l.17.07a.64.64,0,0,0,.2,0h1.18a0,0,0,0,1,.05,0v.51a0,0,0,0,1-.05.05h-.84a3.36,3.36,0,0,1-.7-.07,1.05,1.05,0,0,1-.45-.22.85.85,0,0,1-.25-.39,1.86,1.86,0,0,1-.07-.56,1.56,1.56,0,0,1,.12-.66,1.07,1.07,0,0,1,.32-.42,1.4,1.4,0,0,1,.44-.22,2.14,2.14,0,0,1,.5-.06,2,2,0,0,1,.53.07,1,1,0,0,1,.37.21.69.69,0,0,1,.21.32,1.16,1.16,0,0,1,.07.42v.52a0,0,0,0,1-.05,0H22S22,7.15,22,7.18Zm1.33-.63a0,0,0,0,0,.05,0,.33.33,0,0,0-.18-.3.85.85,0,0,0-.49-.11l-.22,0a.9.9,0,0,0-.23.08.53.53,0,0,0-.19.13A.23.23,0,0,0,22,6.5s0,0,.05,0Z" fill="#9c9c9c"/><rect x="12.58" y="3.16" width="2.12" height="2.12" rx="0.23" fill="#faba05"/><path d="M13.35,4.38a1.57,1.57,0,0,0-.3,0v.06a.54.54,0,0,0,0,.13s0,.11,0,.17.09.06.09.06c.34,0,1,0,1.08,0s0-.21,0-.21V4.42a1.36,1.36,0,0,0-.29,0h-.59m-.24.25a0,0,0,0,1,0,0,0,0,0,0,1,0,0s0,0,0,0A0,0,0,0,1,13.13,4.62Zm.09,0s0,0,0,0,0,0,0,0a0,0,0,0,1,0,.06Zm.07,0a0,0,0,0,1,0,0s0,0,0,0a0,0,0,0,1,0,0S13.3,4.67,13.29,4.67Zm.76,0h0a0,0,0,0,1,0,0h0A0,0,0,0,1,14.05,4.65Zm.08,0h-.05a0,0,0,0,1,0,0h.05A0,0,0,0,1,14.13,4.63Zm.09,0a.06.06,0,0,1-.06,0,0,0,0,0,1,0-.06s0,0,.06,0S14.23,4.58,14.22,4.6Z" fill="#fff"/><path d="M13.28,4.84h-.15v.09s0,0,0,0h.07l0,0s0-.09,0-.09Z" fill="#fff"/><path d="M14,4.84h.15v.09s0,0-.05,0H14a.22.22,0,0,1,0-.1Z" fill="#fff"/><path d="M14,3.53A.08.08,0,0,0,14,3.47h-.68a.17.17,0,0,0-.06.06h0s.16,0,.35,0l.42,0Z" fill="#fff"/><path d="M13.76,4.15l0,0,.14.17h0Z" fill="#fff"/><path d="M13.55,4.15l-.13.16h0l.14-.17S13.58,4.12,13.55,4.15Z" fill="#fff"/><path d="M14.22,4.34l0-.56h0l0,.61-.3,0h-.64l-.26,0,0-.63,0,0,0,.57a2.41,2.41,0,0,1,.54-.07V3.81h-.55s0-.14,0-.22h0s-.07.08-.08.1,0,0,0,0,0,0,0,0,0,0,0,.07,0,.18,0,.19-.09,0-.09,0,0-.2,0-.22a0,0,0,0,1,0,0c0-.19.07-.2.11-.21a.15.15,0,0,1,.09,0,1.67,1.67,0,0,1,.5,0l.49,0h0a.19.19,0,0,1,.08,0s.08,0,.11.21a0,0,0,0,1,0,0s0,.2,0,.22,0,.06-.09,0,0-.16,0-.19,0-.05,0-.07,0,0,0,0,0,0,0,0,0-.13-.08-.1a.35.35,0,0,1,0,.15s0,.06,0,.07h-.54l0,.48A2.61,2.61,0,0,1,14.22,4.34Z" fill="#fff"/><path d="M13.55,4.15s0,0,0,0l-.14.17h0l.17-.17s0,0,0,0-.13.12-.19.2h0Z" fill="#fff"/><path d="M13.45,4.3h0" fill="#fff"/><path d="M13.72,4.13l0,0,.12.15h0c-.06-.07-.16-.19-.19-.19s0,0,0,0l.16.17h0Z" fill="#fff"/><path d="M13.86,4.3h0" fill="#fff"/><rect x="15.11" y="3.15" width="2.12" height="2.12" rx="0.23" fill="#29529f"/><path d="M16.9,4.37h0a.31.31,0,0,0,0-.08l0,0-.13-.06-.26-.11h0a.17.17,0,0,0,0-.07h0s0-.07-.05-.07h0s-.05,0-.05,0V4h0l0,0V4h0V3.7a.4.4,0,0,0,0-.19h0s0-.06-.07-.06h0a.09.09,0,0,0-.08.06h0a.45.45,0,0,0,0,.16V4h0a.15.15,0,0,0,0-.07l-.07,0h0s0,0,0,0a.14.14,0,0,0,0,.11h0l-.23.1-.14.06a.14.14,0,0,0-.06.07h0a.11.11,0,0,0,0,.08s0,0,0,0h0s0,0,0,0l.34-.07.06,0H16s0,0,0,0v.11a1,1,0,0,0,0,.29s0,0,0,0l-.05,0-.09,0a.1.1,0,0,0-.06.11s0,0,0,0h0l.07,0,.08,0h.05v0h0a0,0,0,0,0,0,0h0s0,0,0,0v0h0l.19,0h.05a0,0,0,0,0,0,0h0a.09.09,0,0,0-.05-.1l-.09-.06-.06,0s0,0,0,0a.78.78,0,0,0,0-.22V4.28h.13l.25.06.15,0s0,0,0,0,0,0,0,0h0A0,0,0,0,0,16.9,4.37Zm-.71.4Z" fill="#fff"/><rect x="17.65" y="3.15" width="2.12" height="2.12" rx="0.23" fill="#c31718"/><g id="fee36827-cded-4b20-ac5b-e8d3972ea7e4" data-name="pRVzYv"><path d="M19.17,4v.08s0,0,0,0h.09V4.3l0,0-.39-.17a.32.32,0,0,0-.27,0l-.21.09-.2.09h0V4.09h.11V4h.16s0,0,0,0V3.9s0,0,0,0l.14,0a1,1,0,0,1,.3,0H19a0,0,0,0,1,0,0V4h.18Z" fill="#fff" fill-rule="evenodd"/><path d="M19.39,4.41l-.11,0-.23-.1-.22-.1-.09,0v.65s0,0,0,0,0,0,0,0,0,0,0,0V4.14l-.09,0-.15.07-.39.17c-.08,0-.11.1-.08.16l.07.11.18.27h0a.22.22,0,0,0,.16,0,.23.23,0,0,0,.07-.07h.05l0,0a.22.22,0,0,0,.2.06.2.2,0,0,0,.12-.06l0,0s0,0,.05,0h0l.05,0a.24.24,0,0,0,.19,0h0l.06-.1.18-.27C19.49,4.51,19.46,4.45,19.39,4.41Z" fill="#fff" fill-rule="evenodd"/></g><path d="M18.9,3.82h0l-.13-.19h-.17l-.12.19h.4Z" fill="#fff"/><rect x="18.63" y="3.45" width="0.16" height="0.12" fill="#fff"/><rect x="20.79" y="3.13" width="2.14" height="2.14" rx="0.23" fill="#3c3c3b"/><path d="M22.13,4.49v-.1h-.55v.1h.12v.06a.05.05,0,0,0,.05,0H22c.05,0,.05,0,.05,0V4.49Z" fill="#fff"/><path d="M21.28,4.32s0,.21,0,.26a.08.08,0,0,0,.05.07h.19a.92.92,0,0,1,0-.3h.65a.67.67,0,0,1,0,.3h.19s.05-.06.05-.06l0-.27h0a1.79,1.79,0,0,0,0-.45,1,1,0,0,0-.14-.37,0,0,0,0,0,0,0,2.83,2.83,0,0,0-.84,0s0,0,0,0a1.42,1.42,0,0,0-.15.38,4.33,4.33,0,0,0,0,.45Zm1-.1s0,.06-.07.06h-.81c-.05,0-.07-.06-.07-.06L21.32,4h.11s.05,0,.05,0l.07.16h.61l.06-.16a.07.07,0,0,1,.06,0h.11Zm-.75-.74h.58a0,0,0,0,1,0,0,0,0,0,0,1,0,0h-.58l0,0Zm-.24.25c.05-.18.12-.19.12-.19h.82c.06,0,.09.09.12.19a.54.54,0,0,1,0,.23l-.53,0c-.19,0-.56,0-.56,0A.83.83,0,0,1,21.34,3.73Z" fill="#fff"/><path d="M22.24,4.1l0,.12s0,0,0,0h.07s0,0,0,0l.06-.15h-.07A.06.06,0,0,0,22.24,4.1Zm0,.13,0,0,0,0,0,0Zm.08-.11a0,0,0,0,1,0,0s0,0,0,0,0,0,0,0A0,0,0,0,1,22.32,4.12Z" fill="#fff"/><path d="M21.46,4.1s0,0,0,0h-.07s0,.11,0,.15,0,0,0,0h.07a0,0,0,0,0,0,0Zm0,.05a0,0,0,0,1,0-.06s0,0,0,0S21.44,4.15,21.42,4.15Zm0,.08a0,0,0,0,1,0,0,0,0,0,0,1,0,0l0,0Z" fill="#fff"/><polygon points="21.1 4.98 21.39 4.98 21.67 4.68 21.53 4.68 21.1 4.98" fill="#fff"/><polygon points="22.04 4.68 22.33 4.98 22.62 4.98 22.18 4.68 22.04 4.68" fill="#fff"/><path d="M3.21,0s.06,0,.06,0V.52s0,0-.06,0H1.34a.27.27,0,0,0-.13,0L1.08.68A.55.55,0,0,0,1,.78a.19.19,0,0,0,0,.1V2a.49.49,0,0,0,.15.38.56.56,0,0,0,.39.15h.75a.64.64,0,0,0,.2,0,.52.52,0,0,0,.15-.07.25.25,0,0,0,.08-.1.16.16,0,0,0,0-.08V1.85s0,0-.06,0h-1s-.06,0-.06,0V1.29s0,0,.06,0H3.51s.06,0,.06,0v1a.69.69,0,0,1-.06.25,1.08,1.08,0,0,1-.21.28A1.43,1.43,0,0,1,2.91,3a1.72,1.72,0,0,1-.6.09H1.25A1.42,1.42,0,0,1,.73,3a1.47,1.47,0,0,1-.38-.25.9.9,0,0,1-.23-.32A.71.71,0,0,1,0,2.11V.88A.64.64,0,0,1,.13.58,1.05,1.05,0,0,1,.37.3,1.38,1.38,0,0,1,.72.08,1.22,1.22,0,0,1,1.15,0H3.21Z" fill="#575756"/><path d="M5.64.85s.06,0,.06,0v.45s0,0-.06,0H5.06L5,1.4l-.08.05,0,.06a.14.14,0,0,0,0,.06v1.5s0,0-.06,0H4.07S4,3.1,4,3.07V1.42a.43.43,0,0,1,.06-.22A.62.62,0,0,1,4.25,1,1,1,0,0,1,4.5.9,1.06,1.06,0,0,1,4.81.85Z" fill="#575756"/><path d="M6.21.85H7.93a.94.94,0,0,1,.39.07.65.65,0,0,1,.26.19.64.64,0,0,1,.15.25.86.86,0,0,1,0,.28V3.07s0,0-.06,0H6.59A.56.56,0,0,1,6.29,3a.54.54,0,0,1-.18-.19A.85.85,0,0,1,6,2.62a.53.53,0,0,1,0-.16,1,1,0,0,1,0-.23A1,1,0,0,1,6.15,2a.63.63,0,0,1,.21-.18.57.57,0,0,1,.31-.08h1a.5.5,0,0,0,.26-.05C8,1.65,8,1.61,8,1.56A.17.17,0,0,0,8,1.44a.21.21,0,0,0-.16-.06H6.21s-.06,0-.06,0V.89S6.17.85,6.21.85ZM8,2.6s.06,0,.06,0V2.3s0,0-.06,0H6.89a.16.16,0,0,0-.14.05.14.14,0,0,0-.06.11.18.18,0,0,0,.06.13.29.29,0,0,0,.17.05Z" fill="#575756"/><path d="M10,3c0,.09-.05.14-.17.14h-.4a.17.17,0,0,1-.13,0,.19.19,0,0,1,0-.12V1.14a.23.23,0,0,1,.13-.2A.53.53,0,0,1,9.71.85h1.37a1.31,1.31,0,0,1,.41.06,1.28,1.28,0,0,1,.33.17.87.87,0,0,1,.23.24.55.55,0,0,1,.07.28V3.07s0,0-.06,0h-.62s-.06,0-.06,0V1.69a.34.34,0,0,0,0-.18.35.35,0,0,0-.13-.11l-.19,0-.24,0h-.59a.2.2,0,0,0-.13,0s-.06,0-.06.07Z" fill="#575756"/><path d="M5.79,11s0,0,0,.06l0,0s0,0,0-.08l.73-2.38a.05.05,0,0,1,.06,0h.55s0,0,0,0L6.4,11.35a.31.31,0,0,1-.19.21,1.22,1.22,0,0,1-.37,0,1.29,1.29,0,0,1-.38,0,.29.29,0,0,1-.19-.21L4.41,8.57s0,0,0,0H5a.06.06,0,0,1,.06,0Z" fill="#fdc700"/><path d="M7.55,10.78a.16.16,0,0,0,0,.12.2.2,0,0,0,.09.09l.14.07.17,0H9a0,0,0,0,1,.05,0v.44s0,0-.05,0H8.28a2.52,2.52,0,0,1-.6-.06.8.8,0,0,1-.38-.19A.63.63,0,0,1,7.09,11,1.62,1.62,0,0,1,7,10.54,1.27,1.27,0,0,1,7.13,10a1,1,0,0,1,.27-.36,1,1,0,0,1,.38-.19,2,2,0,0,1,.43,0,1.53,1.53,0,0,1,.45.06A.83.83,0,0,1,9,9.62a.64.64,0,0,1,.18.27,1,1,0,0,1,.06.36v.45s0,0-.05,0H7.6A0,0,0,0,0,7.55,10.78Zm1.14-.54s0,0,0,0a.3.3,0,0,0-.15-.26.76.76,0,0,0-.41-.09.65.65,0,0,0-.19,0l-.2.07a.5.5,0,0,0-.16.11.21.21,0,0,0-.07.15s0,0,0,0Z" fill="#fdc700"/><path d="M10.05,11.47c0,.09,0,.13-.12.13H9.65a.11.11,0,0,1-.09,0,.21.21,0,0,1,0-.12V9.66a.26.26,0,0,1,.09-.19.29.29,0,0,1,.22-.09h1a.67.67,0,0,1,.28.06.66.66,0,0,1,.23.17.73.73,0,0,1,.16.23.65.65,0,0,1,0,.27v1.45s0,0,0,0h-.43s-.05,0-.05,0V10.2A.4.4,0,0,0,11,10a.24.24,0,0,0-.09-.11l-.13-.05-.17,0h-.41a.18.18,0,0,0-.09,0,.09.09,0,0,0,0,.07Z" fill="#fdc700"/><path d="M12.29,10.78a.16.16,0,0,0,0,.12.2.2,0,0,0,.09.09l.14.07.17,0h1a0,0,0,0,1,0,0v.44s0,0,0,0H13a2.52,2.52,0,0,1-.6-.06.8.8,0,0,1-.38-.19.63.63,0,0,1-.21-.33,1.62,1.62,0,0,1-.07-.48,1.27,1.27,0,0,1,.11-.56,1,1,0,0,1,.27-.36,1,1,0,0,1,.38-.19,2,2,0,0,1,.43,0,1.53,1.53,0,0,1,.45.06.83.83,0,0,1,.32.18.64.64,0,0,1,.18.27,1,1,0,0,1,.06.36v.45s0,0-.05,0H12.34A0,0,0,0,0,12.29,10.78Zm1.14-.54s0,0,0,0a.3.3,0,0,0-.15-.26.76.76,0,0,0-.41-.09.65.65,0,0,0-.19,0l-.2.07a.5.5,0,0,0-.16.11.21.21,0,0,0-.07.15s0,0,.05,0Z" fill="#29529f"/><path d="M14.73,11.6a.57.57,0,0,1-.37-.09.37.37,0,0,1-.11-.27.42.42,0,0,1,0-.15.57.57,0,0,1,.1-.13l1-1a0,0,0,0,0,0,0s0,0-.07,0h-1s0,0,0,0V9.42a0,0,0,0,1,0,0h1.4a.45.45,0,0,1,.34.1.4.4,0,0,1,.09.29.34.34,0,0,1,0,.15.41.41,0,0,1-.07.11l-1,1a.09.09,0,0,0,0,.06s0,0,0,0h1a0,0,0,0,1,0,0v.44a0,0,0,0,1,0,0Z" fill="#29529f"/><path d="M17.92,9.38h.44a0,0,0,0,1,0,0V11.1a.41.41,0,0,1-.08.24.73.73,0,0,1-.22.16,1.32,1.32,0,0,1-.3.09,2,2,0,0,1-.34,0,1.87,1.87,0,0,1-.34,0,1.07,1.07,0,0,1-.3-.09.73.73,0,0,1-.22-.16.35.35,0,0,1-.08-.24V9.42a0,0,0,0,1,0,0H17a0,0,0,0,1,.05,0v1.5a.09.09,0,0,0,0,.07.33.33,0,0,0,.1.06l.13,0h.31l.14,0a.2.2,0,0,0,.09-.06.08.08,0,0,0,0-.07V9.42A0,0,0,0,1,17.92,9.38Z" fill="#29529f"/><path d="M19.16,10.78a.21.21,0,0,0,0,.12.28.28,0,0,0,.1.09.4.4,0,0,0,.13.07l.17,0h1a0,0,0,0,1,0,0v.44s0,0,0,0h-.72a2.52,2.52,0,0,1-.6-.06.89.89,0,0,1-.39-.19.63.63,0,0,1-.21-.33,1.65,1.65,0,0,1-.06-.48,1.27,1.27,0,0,1,.11-.56A1,1,0,0,1,19,9.62a1,1,0,0,1,.38-.19,2,2,0,0,1,.42,0,1.56,1.56,0,0,1,.46.06.73.73,0,0,1,.31.18.5.5,0,0,1,.18.27,1,1,0,0,1,.06.36v.45s0,0,0,0H19.2A0,0,0,0,0,19.16,10.78Zm1.14-.54s0,0,0,0a.3.3,0,0,0-.15-.26.82.82,0,0,0-.42-.09.68.68,0,0,0-.19,0l-.2.07a.91.91,0,0,0-.16.11.24.24,0,0,0-.06.15s0,0,0,0Z" fill="#c31718"/><path d="M21.18,8.55h.44a0,0,0,0,1,0,0v2.53h0v.44a0,0,0,0,1,0,0h-.44s0,0,0,0v-.44h0V8.59S21.15,8.55,21.18,8.55Z" fill="#c31718"/><path d="M22.14,9.38h1.2a.51.51,0,0,1,.28.07.65.65,0,0,1,.28.43,1.24,1.24,0,0,1,0,.27v1.41s0,0,0,0H22.4a.28.28,0,0,1-.21-.08.57.57,0,0,1-.12-.18.79.79,0,0,1-.06-.22A1.37,1.37,0,0,1,22,11a.89.89,0,0,1,0-.22.57.57,0,0,1,.08-.23.49.49,0,0,1,.14-.18.32.32,0,0,1,.22-.07h.71a.35.35,0,0,0,.18,0,.18.18,0,0,0,.06-.13.19.19,0,0,0,0-.12.13.13,0,0,0-.11-.06H22.14s0,0,0,0V9.42A0,0,0,0,1,22.14,9.38Zm1.23,1.72s0,0,0,0V10.8a0,0,0,0,0,0,0h-.76a.14.14,0,0,0-.1.05.22.22,0,0,0,0,.24.17.17,0,0,0,.12,0Z" fill="#c31718"/></svg>