<svg id="bf2baeb1-9eda-4692-848d-abf505e5e81a" data-name="Delantero" xmlns="http://www.w3.org/2000/svg" viewBox="0 0 1100.39 241.7"><path d="M199.79,23.4,114.08,214.11H58.84L21.65,23.4H79.87l21.07,123.09q1.95-5.46,18.17-43.59l34.11-79.5Z" fill="none" stroke="#fff" stroke-linejoin="round" stroke-width="43.31"/><path d="M337.69,153.89H240.44a79.58,79.58,0,0,0-.69,8.57q0,9.25,5.93,14.46t15,5.19q17.19,0,24.31-17.88l47.51,7.69q-9.22,20.73-29.83,33.56a84.87,84.87,0,0,1-45.76,12.82q-31.58,0-51.2-18t-19.63-49q0-33.67,23.19-57.77t60.63-24.1q31.72,0,50.51,18.69t18.79,49.65A97.66,97.66,0,0,1,337.69,153.89Zm-50.86-27.1a44.67,44.67,0,0,0,.7-6.71A19.8,19.8,0,0,0,282.85,107q-4.68-5.6-13.07-5.59-8.94,0-16.2,6.78t-8.94,18.65Z" fill="none" stroke="#fff" stroke-linejoin="round" stroke-width="43.31"/><path d="M373,73h49.16l-3.73,22.91A38.21,38.21,0,0,1,437.17,75.3a60.32,60.32,0,0,1,27.36-6.49q18,0,29.18,9.49t11.16,25a89.62,89.62,0,0,1-1.39,14.39l-16.11,96.41h-53.7l14.25-84.81a80.85,80.85,0,0,0,1.4-10.76q0-11.87-12.56-11.87-16.89,0-20.66,22.64l-14.26,84.8H349.42Z" fill="none" stroke="#fff" stroke-linejoin="round" stroke-width="43.31"/><path d="M199.79,23.4,114.08,214.11H58.84L21.65,23.4H79.87l21.07,123.09q1.95-5.46,18.17-43.59l34.11-79.5Z" fill="#eb1c24"/><path d="M337.69,153.89H240.44a79.58,79.58,0,0,0-.69,8.57q0,9.25,5.93,14.46t15,5.19q17.19,0,24.31-17.88l47.51,7.69q-9.22,20.73-29.83,33.56a84.87,84.87,0,0,1-45.76,12.82q-31.58,0-51.2-18t-19.63-49q0-33.67,23.19-57.77t60.63-24.1q31.72,0,50.51,18.69t18.79,49.65A97.66,97.66,0,0,1,337.69,153.89Zm-50.86-27.1a44.67,44.67,0,0,0,.7-6.71A19.8,19.8,0,0,0,282.85,107q-4.68-5.6-13.07-5.59-8.94,0-16.2,6.78t-8.94,18.65Z" fill="#eb1c24"/><path d="M373,73h49.16l-3.73,22.91A38.21,38.21,0,0,1,437.17,75.3a60.32,60.32,0,0,1,27.36-6.49q18,0,29.18,9.49t11.16,25a89.62,89.62,0,0,1-1.39,14.39l-16.11,96.41h-53.7l14.25-84.81a80.85,80.85,0,0,0,1.4-10.76q0-11.87-12.56-11.87-16.89,0-20.66,22.64l-14.26,84.8H349.42Z" fill="#eb1c24"/><path d="M701.51,26.12,615.8,216.83H560.56L523.37,26.12h58.21l21.08,123.09q2-5.44,18.17-43.59l34.11-79.5Z" fill="none" stroke="#fff" stroke-linejoin="round" stroke-width="43.31"/><path d="M762.5,75.72,738.87,216.83H684L707.68,75.72Zm9.06-54.07-6.95,41.5H709.79l7-41.5Z" fill="none" stroke="#fff" stroke-linejoin="round" stroke-width="43.31"/><path d="M912.89,216.83H857.66q-.42-4.05-.42-6.57a164,164,0,0,1,1-16.83Q841.64,220,811.88,220.05q-20.11,0-32.56-11.6t-12.43-29.06a44.46,44.46,0,0,1,6.7-23.82,47.85,47.85,0,0,1,19-17.26,81.45,81.45,0,0,1,25.13-8.45q12.85-2,50.27-5.52a27.14,27.14,0,0,0,1.76-8.1q0-11.59-16.22-11.6-15.93,0-23.48,15.79l-46-9.36q17.46-39.25,76.84-39.26,30,0,47.22,10.41t17.19,30.67q0,9.08-10.06,64.26-3.78,20.55-3.77,27.25A64.17,64.17,0,0,0,912.89,216.83Zm-49.68-67.06q-38.48,2.94-38.47,24.59,0,11.88,12.42,11.88,8,0,15.91-7.13T863.21,149.77Z" fill="none" stroke="#fff" stroke-linejoin="round" stroke-width="43.31"/><path d="M1078.73,108.41l-41.49,9.09q-4.76-13.69-26.13-13.7-15,0-15,8.39,0,7.41,14.39,9.93,29.34,5,41.35,11t18.1,15.29a37.58,37.58,0,0,1,6.08,21q0,21.22-17.81,35.82t-54.14,14.6q-27,0-47-10.55T932,177.71l44.15-6.42q5.18,15.22,29.62,15.23,9.51,0,14.11-2.73t4.62-6.22a5.28,5.28,0,0,0-3.08-5q-3.08-1.61-15.51-4.41-24.72-5.61-35.2-10a43.18,43.18,0,0,1-17.82-14,35.9,35.9,0,0,1-7.33-22.35q0-21.65,17.18-35.61t46.53-14q26.68,0,45.54,10.27T1078.73,108.41Z" fill="none" stroke="#fff" stroke-linejoin="round" stroke-width="43.31"/><path d="M701.51,26.12,615.8,216.83H560.56L523.37,26.12h58.21l21.08,123.09q2-5.44,18.17-43.59l34.11-79.5Z" fill="#666"/><path d="M762.5,75.72,738.87,216.83H684L707.68,75.72Zm9.06-54.07-6.95,41.5H709.79l7-41.5Z" fill="#666"/><path d="M912.89,216.83H857.66q-.42-4.05-.42-6.57a164,164,0,0,1,1-16.83Q841.64,220,811.88,220.05q-20.11,0-32.56-11.6t-12.43-29.06a44.46,44.46,0,0,1,6.7-23.82,47.85,47.85,0,0,1,19-17.26,81.45,81.45,0,0,1,25.13-8.45q12.85-2,50.27-5.52a27.14,27.14,0,0,0,1.76-8.1q0-11.59-16.22-11.6-15.93,0-23.48,15.79l-46-9.36q17.46-39.25,76.84-39.26,30,0,47.22,10.41t17.19,30.67q0,9.08-10.06,64.26-3.78,20.55-3.77,27.25A64.17,64.17,0,0,0,912.89,216.83Zm-49.68-67.06q-38.48,2.94-38.47,24.59,0,11.88,12.42,11.88,8,0,15.91-7.13T863.21,149.77Z" fill="#666"/><path d="M1078.73,108.41l-41.49,9.09q-4.76-13.69-26.13-13.7-15,0-15,8.39,0,7.41,14.39,9.93,29.34,5,41.35,11t18.1,15.29a37.58,37.58,0,0,1,6.08,21q0,21.22-17.81,35.82t-54.14,14.6q-27,0-47-10.55T932,177.71l44.15-6.42q5.18,15.22,29.62,15.23,9.51,0,14.11-2.73t4.62-6.22a5.28,5.28,0,0,0-3.08-5q-3.08-1.61-15.51-4.41-24.72-5.61-35.2-10a43.18,43.18,0,0,1-17.82-14,35.9,35.9,0,0,1-7.33-22.35q0-21.65,17.18-35.61t46.53-14q26.68,0,45.54,10.27T1078.73,108.41Z" fill="#666"/></svg>